<mxfile host="app.diagrams.net" modified="2024-02-21T15:37:56.690Z" agent="Mozilla/5.0 (Windows NT 10.0; Win64; x64) AppleWebKit/537.36 (KHTML, like Gecko) Chrome/121.0.0.0 Safari/537.36 Edg/121.0.0.0" etag="cIkvrUviGNL6P7PgPIpm" version="23.1.2" type="google">
  <diagram name="Trang-1" id="4ELeNfhWgsWyqRHjWLtt">
    <mxGraphModel grid="1" page="1" gridSize="10" guides="1" tooltips="1" connect="1" arrows="1" fold="1" pageScale="1" pageWidth="827" pageHeight="1169" math="0" shadow="0">
      <root>
        <mxCell id="0" />
        <mxCell id="1" parent="0" />
        <mxCell id="RNrQX4KEW6rcFSMOayev-10" style="edgeStyle=orthogonalEdgeStyle;rounded=0;orthogonalLoop=1;jettySize=auto;html=1;entryX=0;entryY=0.5;entryDx=0;entryDy=0;exitX=0.5;exitY=0;exitDx=0;exitDy=0;fontSize=15;endArrow=ERone;endFill=0;startArrow=ERone;startFill=0;" edge="1" parent="1" source="yIXdfVgQopt7T1gTGQF_-1" target="RNrQX4KEW6rcFSMOayev-8">
          <mxGeometry relative="1" as="geometry" />
        </mxCell>
        <mxCell id="RNrQX4KEW6rcFSMOayev-11" value="CÓ" style="edgeLabel;html=1;align=center;verticalAlign=middle;resizable=0;points=[];fontSize=15;" connectable="0" vertex="1" parent="RNrQX4KEW6rcFSMOayev-10">
          <mxGeometry x="0.0602" y="-2" relative="1" as="geometry">
            <mxPoint as="offset" />
          </mxGeometry>
        </mxCell>
        <mxCell id="RNrQX4KEW6rcFSMOayev-43" style="edgeStyle=orthogonalEdgeStyle;rounded=0;orthogonalLoop=1;jettySize=auto;html=1;exitX=0.75;exitY=0;exitDx=0;exitDy=0;fontSize=15;startArrow=ERone;startFill=0;endArrow=ERoneToMany;endFill=0;" edge="1" parent="1" source="yIXdfVgQopt7T1gTGQF_-1" target="yIXdfVgQopt7T1gTGQF_-1">
          <mxGeometry relative="1" as="geometry">
            <mxPoint x="230" y="180" as="targetPoint" />
            <Array as="points">
              <mxPoint x="185" y="170" />
              <mxPoint x="300" y="170" />
              <mxPoint x="300" y="200" />
            </Array>
          </mxGeometry>
        </mxCell>
        <mxCell id="RNrQX4KEW6rcFSMOayev-44" value="QUẢN LÝ" style="edgeLabel;html=1;align=center;verticalAlign=middle;resizable=0;points=[];fontSize=15;" connectable="0" vertex="1" parent="RNrQX4KEW6rcFSMOayev-43">
          <mxGeometry x="-0.4323" y="-2" relative="1" as="geometry">
            <mxPoint x="10" y="-2" as="offset" />
          </mxGeometry>
        </mxCell>
        <mxCell id="RNrQX4KEW6rcFSMOayev-45" style="edgeStyle=orthogonalEdgeStyle;rounded=0;orthogonalLoop=1;jettySize=auto;html=1;exitX=1;exitY=0.75;exitDx=0;exitDy=0;entryX=0;entryY=0.25;entryDx=0;entryDy=0;fontSize=15;startArrow=ERoneToMany;startFill=0;endArrow=ERoneToMany;endFill=0;" edge="1" parent="1" source="yIXdfVgQopt7T1gTGQF_-1" target="yIXdfVgQopt7T1gTGQF_-4">
          <mxGeometry relative="1" as="geometry" />
        </mxCell>
        <mxCell id="RNrQX4KEW6rcFSMOayev-46" value="&lt;font style=&quot;font-size: 15px;&quot;&gt;NẤU&lt;/font&gt;" style="edgeLabel;html=1;align=center;verticalAlign=middle;resizable=0;points=[];fontSize=15;" connectable="0" vertex="1" parent="RNrQX4KEW6rcFSMOayev-45">
          <mxGeometry x="-0.0006" y="-2" relative="1" as="geometry">
            <mxPoint as="offset" />
          </mxGeometry>
        </mxCell>
        <mxCell id="RNrQX4KEW6rcFSMOayev-47" style="edgeStyle=orthogonalEdgeStyle;rounded=0;orthogonalLoop=1;jettySize=auto;html=1;entryX=1;entryY=0.5;entryDx=0;entryDy=0;fontSize=15;endArrow=ERoneToMany;endFill=0;startArrow=ERoneToMany;startFill=0;" edge="1" parent="1" target="RNrQX4KEW6rcFSMOayev-1">
          <mxGeometry relative="1" as="geometry">
            <mxPoint x="1070.8695652173913" y="320" as="targetPoint" />
            <Array as="points">
              <mxPoint x="100" y="190" />
              <mxPoint x="100" y="60" />
              <mxPoint x="1071" y="60" />
              <mxPoint x="1071" y="320" />
            </Array>
            <mxPoint x="100" y="190" as="sourcePoint" />
          </mxGeometry>
        </mxCell>
        <mxCell id="RNrQX4KEW6rcFSMOayev-48" value="&lt;font style=&quot;font-size: 15px;&quot;&gt;PHỤC VỤ&lt;/font&gt;" style="edgeLabel;html=1;align=center;verticalAlign=middle;resizable=0;points=[];fontSize=15;" connectable="0" vertex="1" parent="RNrQX4KEW6rcFSMOayev-47">
          <mxGeometry x="0.2291" y="-2" relative="1" as="geometry">
            <mxPoint as="offset" />
          </mxGeometry>
        </mxCell>
        <mxCell id="tQty-yD7MHct1ZMePWeT-1" style="edgeStyle=orthogonalEdgeStyle;rounded=0;orthogonalLoop=1;jettySize=auto;html=1;entryX=0;entryY=0.5;entryDx=0;entryDy=0;startArrow=ERoneToMany;startFill=0;endArrow=ERoneToMany;endFill=0;" edge="1" parent="1" source="yIXdfVgQopt7T1gTGQF_-1" target="RNrQX4KEW6rcFSMOayev-5">
          <mxGeometry relative="1" as="geometry">
            <Array as="points">
              <mxPoint x="20" y="220" />
              <mxPoint x="20" y="610" />
            </Array>
          </mxGeometry>
        </mxCell>
        <mxCell id="tQty-yD7MHct1ZMePWeT-10" value="QUÁN LÝ" style="edgeLabel;html=1;align=center;verticalAlign=middle;resizable=0;points=[];fontSize=15;" connectable="0" vertex="1" parent="tQty-yD7MHct1ZMePWeT-1">
          <mxGeometry x="0.4633" y="-1" relative="1" as="geometry">
            <mxPoint as="offset" />
          </mxGeometry>
        </mxCell>
        <mxCell id="tQty-yD7MHct1ZMePWeT-2" style="edgeStyle=orthogonalEdgeStyle;rounded=0;orthogonalLoop=1;jettySize=auto;html=1;entryX=0.5;entryY=1;entryDx=0;entryDy=0;exitX=0;exitY=0.25;exitDx=0;exitDy=0;startArrow=ERoneToMany;startFill=0;endArrow=ERoneToMany;endFill=0;" edge="1" parent="1" source="yIXdfVgQopt7T1gTGQF_-1" target="RNrQX4KEW6rcFSMOayev-4">
          <mxGeometry relative="1" as="geometry">
            <Array as="points">
              <mxPoint x="80" y="200" />
              <mxPoint x="10" y="200" />
              <mxPoint x="10" y="670" />
              <mxPoint x="763" y="670" />
            </Array>
          </mxGeometry>
        </mxCell>
        <mxCell id="tQty-yD7MHct1ZMePWeT-11" value="LÀM VIỆC" style="edgeLabel;html=1;align=center;verticalAlign=middle;resizable=0;points=[];fontSize=12;" connectable="0" vertex="1" parent="tQty-yD7MHct1ZMePWeT-2">
          <mxGeometry x="0.2421" relative="1" as="geometry">
            <mxPoint as="offset" />
          </mxGeometry>
        </mxCell>
        <mxCell id="tQty-yD7MHct1ZMePWeT-5" style="edgeStyle=orthogonalEdgeStyle;rounded=0;orthogonalLoop=1;jettySize=auto;html=1;entryX=0;entryY=0.25;entryDx=0;entryDy=0;exitX=1.003;exitY=0.417;exitDx=0;exitDy=0;exitPerimeter=0;startArrow=ERoneToMany;startFill=0;endArrow=ERoneToMany;endFill=0;" edge="1" parent="1" source="yIXdfVgQopt7T1gTGQF_-1" target="yIXdfVgQopt7T1gTGQF_-3">
          <mxGeometry relative="1" as="geometry" />
        </mxCell>
        <mxCell id="tQty-yD7MHct1ZMePWeT-6" value="PHỤC VỤ" style="edgeLabel;html=1;align=center;verticalAlign=middle;resizable=0;points=[];fontSize=15;" connectable="0" vertex="1" parent="tQty-yD7MHct1ZMePWeT-5">
          <mxGeometry x="-0.0335" y="2" relative="1" as="geometry">
            <mxPoint as="offset" />
          </mxGeometry>
        </mxCell>
        <mxCell id="tQty-yD7MHct1ZMePWeT-7" style="edgeStyle=orthogonalEdgeStyle;rounded=0;orthogonalLoop=1;jettySize=auto;html=1;exitX=0.323;exitY=0.033;exitDx=0;exitDy=0;exitPerimeter=0;entryX=0.5;entryY=0;entryDx=0;entryDy=0;startArrow=ERoneToMany;startFill=0;endArrow=ERmany;endFill=0;" edge="1" parent="1" source="yIXdfVgQopt7T1gTGQF_-1" target="RNrQX4KEW6rcFSMOayev-2">
          <mxGeometry relative="1" as="geometry">
            <mxPoint x="730" y="40" as="targetPoint" />
            <Array as="points">
              <mxPoint x="125" y="30" />
              <mxPoint x="950" y="30" />
            </Array>
          </mxGeometry>
        </mxCell>
        <mxCell id="tQty-yD7MHct1ZMePWeT-9" value="QUẢN LÝ" style="edgeLabel;html=1;align=center;verticalAlign=middle;resizable=0;points=[];fontSize=15;" connectable="0" vertex="1" parent="tQty-yD7MHct1ZMePWeT-7">
          <mxGeometry x="0.0907" y="3" relative="1" as="geometry">
            <mxPoint as="offset" />
          </mxGeometry>
        </mxCell>
        <mxCell id="yIXdfVgQopt7T1gTGQF_-1" value="Nhân viên" style="rounded=1;arcSize=10;whiteSpace=wrap;html=1;align=center;fontSize=15;fontStyle=1" vertex="1" parent="1">
          <mxGeometry x="80" y="190" width="140" height="60" as="geometry" />
        </mxCell>
        <mxCell id="RNrQX4KEW6rcFSMOayev-12" style="edgeStyle=orthogonalEdgeStyle;rounded=0;orthogonalLoop=1;jettySize=auto;html=1;exitX=0.25;exitY=0;exitDx=0;exitDy=0;entryX=1;entryY=0.5;entryDx=0;entryDy=0;fontSize=15;startArrow=ERone;startFill=0;endArrow=ERone;endFill=0;" edge="1" parent="1" source="yIXdfVgQopt7T1gTGQF_-3" target="RNrQX4KEW6rcFSMOayev-8">
          <mxGeometry relative="1" as="geometry" />
        </mxCell>
        <mxCell id="RNrQX4KEW6rcFSMOayev-13" value="CÓ" style="edgeLabel;html=1;align=center;verticalAlign=middle;resizable=0;points=[];fontSize=15;" connectable="0" vertex="1" parent="RNrQX4KEW6rcFSMOayev-12">
          <mxGeometry x="0.1139" y="2" relative="1" as="geometry">
            <mxPoint as="offset" />
          </mxGeometry>
        </mxCell>
        <mxCell id="RNrQX4KEW6rcFSMOayev-19" style="edgeStyle=orthogonalEdgeStyle;rounded=0;orthogonalLoop=1;jettySize=auto;html=1;entryX=0.5;entryY=0;entryDx=0;entryDy=0;fontSize=15;startArrow=ERoneToMany;startFill=0;endArrow=ERoneToMany;endFill=0;exitX=0;exitY=0.75;exitDx=0;exitDy=0;" edge="1" parent="1" source="yIXdfVgQopt7T1gTGQF_-3" target="yIXdfVgQopt7T1gTGQF_-4">
          <mxGeometry relative="1" as="geometry" />
        </mxCell>
        <mxCell id="RNrQX4KEW6rcFSMOayev-20" value="GỌI MÓN" style="edgeLabel;html=1;align=center;verticalAlign=middle;resizable=0;points=[];fontSize=15;" connectable="0" vertex="1" parent="RNrQX4KEW6rcFSMOayev-19">
          <mxGeometry x="0.35" y="-1" relative="1" as="geometry">
            <mxPoint as="offset" />
          </mxGeometry>
        </mxCell>
        <mxCell id="RNrQX4KEW6rcFSMOayev-39" style="edgeStyle=orthogonalEdgeStyle;rounded=0;orthogonalLoop=1;jettySize=auto;html=1;entryX=0;entryY=0.5;entryDx=0;entryDy=0;fontSize=15;endArrow=ERoneToMany;endFill=0;startArrow=ERone;startFill=0;" edge="1" parent="1" source="yIXdfVgQopt7T1gTGQF_-3" target="RNrQX4KEW6rcFSMOayev-7">
          <mxGeometry relative="1" as="geometry">
            <Array as="points">
              <mxPoint x="690" y="80" />
              <mxPoint x="50" y="80" />
              <mxPoint x="50" y="390" />
            </Array>
          </mxGeometry>
        </mxCell>
        <mxCell id="RNrQX4KEW6rcFSMOayev-40" value="THỰC HIỆN" style="edgeLabel;html=1;align=left;verticalAlign=middle;resizable=0;points=[];fontSize=15;" connectable="0" vertex="1" parent="RNrQX4KEW6rcFSMOayev-39">
          <mxGeometry x="0.0099" y="3" relative="1" as="geometry">
            <mxPoint y="-3" as="offset" />
          </mxGeometry>
        </mxCell>
        <mxCell id="yIXdfVgQopt7T1gTGQF_-3" value="Khách hàng" style="rounded=1;arcSize=10;whiteSpace=wrap;html=1;align=center;fontSize=15;fontStyle=1" vertex="1" parent="1">
          <mxGeometry x="620" y="200" width="140" height="60" as="geometry" />
        </mxCell>
        <mxCell id="RNrQX4KEW6rcFSMOayev-26" style="edgeStyle=orthogonalEdgeStyle;rounded=0;orthogonalLoop=1;jettySize=auto;html=1;entryX=0;entryY=0.25;entryDx=0;entryDy=0;fontSize=15;exitX=1;exitY=0.75;exitDx=0;exitDy=0;endArrow=ERmany;endFill=0;startArrow=ERoneToMany;startFill=0;" edge="1" parent="1" source="yIXdfVgQopt7T1gTGQF_-4" target="RNrQX4KEW6rcFSMOayev-3">
          <mxGeometry relative="1" as="geometry">
            <mxPoint x="474.997037037037" y="360" as="sourcePoint" />
            <mxPoint x="854.9600000000003" y="335" as="targetPoint" />
            <Array as="points">
              <mxPoint x="650" y="405" />
              <mxPoint x="650" y="455" />
            </Array>
          </mxGeometry>
        </mxCell>
        <mxCell id="RNrQX4KEW6rcFSMOayev-35" value="BAO GỒM" style="edgeLabel;html=1;align=center;verticalAlign=middle;resizable=0;points=[];fontSize=15;" connectable="0" vertex="1" parent="RNrQX4KEW6rcFSMOayev-26">
          <mxGeometry x="-0.166" y="-3" relative="1" as="geometry">
            <mxPoint x="-12" y="-3" as="offset" />
          </mxGeometry>
        </mxCell>
        <mxCell id="tQty-yD7MHct1ZMePWeT-14" style="edgeStyle=orthogonalEdgeStyle;rounded=0;orthogonalLoop=1;jettySize=auto;html=1;startArrow=ERoneToMany;startFill=0;endArrow=ERoneToMany;endFill=0;" edge="1" parent="1" source="yIXdfVgQopt7T1gTGQF_-4" target="RNrQX4KEW6rcFSMOayev-2">
          <mxGeometry relative="1" as="geometry">
            <Array as="points">
              <mxPoint x="950" y="370" />
            </Array>
          </mxGeometry>
        </mxCell>
        <mxCell id="tQty-yD7MHct1ZMePWeT-15" value="THUỌC" style="edgeLabel;html=1;align=center;verticalAlign=middle;resizable=0;points=[];fontSize=15;" connectable="0" vertex="1" parent="tQty-yD7MHct1ZMePWeT-14">
          <mxGeometry x="-0.2861" y="4" relative="1" as="geometry">
            <mxPoint as="offset" />
          </mxGeometry>
        </mxCell>
        <mxCell id="yIXdfVgQopt7T1gTGQF_-4" value="Món ăn" style="rounded=1;arcSize=10;whiteSpace=wrap;html=1;align=center;fontSize=15;fontStyle=1" vertex="1" parent="1">
          <mxGeometry x="370" y="360" width="140" height="60" as="geometry" />
        </mxCell>
        <mxCell id="RNrQX4KEW6rcFSMOayev-30" style="edgeStyle=orthogonalEdgeStyle;rounded=0;orthogonalLoop=1;jettySize=auto;html=1;entryX=1;entryY=0.5;entryDx=0;entryDy=0;fontSize=15;startArrow=ERoneToMany;startFill=0;endArrow=ERoneToMany;endFill=0;" edge="1" parent="1" source="RNrQX4KEW6rcFSMOayev-1" target="yIXdfVgQopt7T1gTGQF_-3">
          <mxGeometry relative="1" as="geometry" />
        </mxCell>
        <mxCell id="RNrQX4KEW6rcFSMOayev-32" value="ĐẶT BÀN" style="edgeLabel;html=1;align=center;verticalAlign=middle;resizable=0;points=[];fontSize=15;" connectable="0" vertex="1" parent="RNrQX4KEW6rcFSMOayev-30">
          <mxGeometry x="-0.0538" y="-1" relative="1" as="geometry">
            <mxPoint as="offset" />
          </mxGeometry>
        </mxCell>
        <mxCell id="RNrQX4KEW6rcFSMOayev-1" value="Bàn ăn" style="rounded=1;arcSize=10;whiteSpace=wrap;html=1;align=center;fontSize=15;fontStyle=1" vertex="1" parent="1">
          <mxGeometry x="884" y="385" width="140" height="60" as="geometry" />
        </mxCell>
        <mxCell id="RNrQX4KEW6rcFSMOayev-28" style="edgeStyle=orthogonalEdgeStyle;rounded=0;orthogonalLoop=1;jettySize=auto;html=1;entryX=0.75;entryY=0;entryDx=0;entryDy=0;fontSize=15;startArrow=ERoneToMany;startFill=0;endArrow=ERone;endFill=0;" edge="1" parent="1" source="RNrQX4KEW6rcFSMOayev-2" target="yIXdfVgQopt7T1gTGQF_-3">
          <mxGeometry relative="1" as="geometry" />
        </mxCell>
        <mxCell id="RNrQX4KEW6rcFSMOayev-29" value="THANH TOÁN" style="edgeLabel;html=1;align=center;verticalAlign=middle;resizable=0;points=[];fontSize=15;" connectable="0" vertex="1" parent="RNrQX4KEW6rcFSMOayev-28">
          <mxGeometry x="-0.0968" y="1" relative="1" as="geometry">
            <mxPoint as="offset" />
          </mxGeometry>
        </mxCell>
        <mxCell id="RNrQX4KEW6rcFSMOayev-2" value="Hóa đơn" style="rounded=1;arcSize=10;whiteSpace=wrap;html=1;align=center;fontSize=15;fontStyle=1" vertex="1" parent="1">
          <mxGeometry x="880" y="140" width="140" height="60" as="geometry" />
        </mxCell>
        <mxCell id="RNrQX4KEW6rcFSMOayev-3" value="Nguyên liệu" style="rounded=1;arcSize=10;whiteSpace=wrap;html=1;align=center;fontSize=15;fontStyle=1" vertex="1" parent="1">
          <mxGeometry x="693" y="440" width="140" height="60" as="geometry" />
        </mxCell>
        <mxCell id="RNrQX4KEW6rcFSMOayev-14" style="edgeStyle=orthogonalEdgeStyle;rounded=0;orthogonalLoop=1;jettySize=auto;html=1;entryX=0.5;entryY=1;entryDx=0;entryDy=0;fontSize=15;startArrow=ERoneToMany;startFill=0;endArrow=ERoneToMany;endFill=0;" edge="1" parent="1" source="RNrQX4KEW6rcFSMOayev-4" target="RNrQX4KEW6rcFSMOayev-3">
          <mxGeometry relative="1" as="geometry" />
        </mxCell>
        <mxCell id="RNrQX4KEW6rcFSMOayev-15" value="CUNG CẤP" style="edgeLabel;html=1;align=center;verticalAlign=middle;resizable=0;points=[];fontSize=15;" connectable="0" vertex="1" parent="RNrQX4KEW6rcFSMOayev-14">
          <mxGeometry x="0.0998" y="-2" relative="1" as="geometry">
            <mxPoint as="offset" />
          </mxGeometry>
        </mxCell>
        <mxCell id="RNrQX4KEW6rcFSMOayev-4" value="Nhà cung cấp" style="rounded=1;arcSize=10;whiteSpace=wrap;html=1;align=center;fontSize=15;fontStyle=1" vertex="1" parent="1">
          <mxGeometry x="693" y="580" width="140" height="60" as="geometry" />
        </mxCell>
        <mxCell id="RNrQX4KEW6rcFSMOayev-16" style="edgeStyle=orthogonalEdgeStyle;rounded=0;orthogonalLoop=1;jettySize=auto;html=1;entryX=0;entryY=0.667;entryDx=0;entryDy=0;exitX=0.5;exitY=0;exitDx=0;exitDy=0;entryPerimeter=0;fontSize=15;startArrow=ERoneToMany;startFill=0;endArrow=ERoneToMany;endFill=0;" edge="1" parent="1" source="RNrQX4KEW6rcFSMOayev-5" target="RNrQX4KEW6rcFSMOayev-3">
          <mxGeometry relative="1" as="geometry" />
        </mxCell>
        <mxCell id="RNrQX4KEW6rcFSMOayev-17" value="LƯU TRỮ" style="edgeLabel;html=1;align=center;verticalAlign=middle;resizable=0;points=[];fontSize=15;" connectable="0" vertex="1" parent="RNrQX4KEW6rcFSMOayev-16">
          <mxGeometry x="-0.1529" y="2" relative="1" as="geometry">
            <mxPoint x="-29" y="47" as="offset" />
          </mxGeometry>
        </mxCell>
        <mxCell id="RNrQX4KEW6rcFSMOayev-5" value="Kho" style="rounded=1;arcSize=10;whiteSpace=wrap;html=1;align=center;fontSize=15;fontStyle=1" vertex="1" parent="1">
          <mxGeometry x="420" y="580" width="140" height="60" as="geometry" />
        </mxCell>
        <mxCell id="RNrQX4KEW6rcFSMOayev-33" style="edgeStyle=orthogonalEdgeStyle;rounded=0;orthogonalLoop=1;jettySize=auto;html=1;entryX=1;entryY=0.5;entryDx=0;entryDy=0;fontSize=15;startArrow=ERzeroToOne;startFill=0;endArrow=ERoneToMany;endFill=0;" edge="1" parent="1" source="RNrQX4KEW6rcFSMOayev-6" target="RNrQX4KEW6rcFSMOayev-2">
          <mxGeometry relative="1" as="geometry">
            <Array as="points">
              <mxPoint x="1040" y="170" />
            </Array>
            <mxPoint x="1241" y="260" as="targetPoint" />
          </mxGeometry>
        </mxCell>
        <mxCell id="RNrQX4KEW6rcFSMOayev-34" value="ÁP DỤNG" style="edgeLabel;html=1;align=center;verticalAlign=middle;resizable=0;points=[];fontSize=15;" connectable="0" vertex="1" parent="RNrQX4KEW6rcFSMOayev-33">
          <mxGeometry x="-0.1507" y="2" relative="1" as="geometry">
            <mxPoint x="2" y="-45" as="offset" />
          </mxGeometry>
        </mxCell>
        <mxCell id="RNrQX4KEW6rcFSMOayev-6" value="Chương trình khuyến mãi" style="rounded=1;arcSize=10;whiteSpace=wrap;html=1;align=center;fontSize=15;fontStyle=1;shape=ext;margin=3;double=1;" vertex="1" parent="1">
          <mxGeometry x="970" y="495" width="140" height="60" as="geometry" />
        </mxCell>
        <mxCell id="RNrQX4KEW6rcFSMOayev-21" style="edgeStyle=orthogonalEdgeStyle;rounded=0;orthogonalLoop=1;jettySize=auto;html=1;entryX=0;entryY=0.5;entryDx=0;entryDy=0;fontSize=15;startArrow=ERoneToMany;startFill=0;endArrow=ERoneToMany;endFill=0;" edge="1" parent="1" source="RNrQX4KEW6rcFSMOayev-7" target="yIXdfVgQopt7T1gTGQF_-4">
          <mxGeometry relative="1" as="geometry" />
        </mxCell>
        <mxCell id="RNrQX4KEW6rcFSMOayev-23" value="ĐÁNH GIÁ" style="edgeLabel;html=1;align=center;verticalAlign=middle;resizable=0;points=[];fontSize=15;" connectable="0" vertex="1" parent="RNrQX4KEW6rcFSMOayev-21">
          <mxGeometry x="-0.1467" y="1" relative="1" as="geometry">
            <mxPoint as="offset" />
          </mxGeometry>
        </mxCell>
        <mxCell id="RNrQX4KEW6rcFSMOayev-24" style="edgeStyle=orthogonalEdgeStyle;rounded=0;orthogonalLoop=1;jettySize=auto;html=1;fontSize=15;endArrow=ERoneToMany;endFill=0;startArrow=ERoneToMany;startFill=0;" edge="1" parent="1" source="RNrQX4KEW6rcFSMOayev-7" target="yIXdfVgQopt7T1gTGQF_-1">
          <mxGeometry relative="1" as="geometry" />
        </mxCell>
        <mxCell id="RNrQX4KEW6rcFSMOayev-25" value="ĐÁNH GIÁ" style="edgeLabel;html=1;align=center;verticalAlign=middle;resizable=0;points=[];fontSize=15;" connectable="0" vertex="1" parent="RNrQX4KEW6rcFSMOayev-24">
          <mxGeometry x="-0.0153" y="-3" relative="1" as="geometry">
            <mxPoint as="offset" />
          </mxGeometry>
        </mxCell>
        <mxCell id="RNrQX4KEW6rcFSMOayev-7" value="Đánh giá" style="rounded=1;arcSize=10;whiteSpace=wrap;html=1;align=center;fontSize=15;fontStyle=1;shape=ext;margin=3;double=1;" vertex="1" parent="1">
          <mxGeometry x="80" y="360" width="140" height="60" as="geometry" />
        </mxCell>
        <mxCell id="RNrQX4KEW6rcFSMOayev-8" value="Thông tin thanh toán" style="rounded=1;arcSize=10;whiteSpace=wrap;html=1;align=center;fontSize=15;fontStyle=1;shape=ext;margin=3;double=1;" vertex="1" parent="1">
          <mxGeometry x="360" y="100" width="140" height="60" as="geometry" />
        </mxCell>
        <mxCell id="RNrQX4KEW6rcFSMOayev-52" value="" style="endArrow=none;html=1;rounded=0;strokeWidth=5;fontSize=15;" edge="1" parent="1">
          <mxGeometry width="50" height="50" relative="1" as="geometry">
            <mxPoint x="10" y="680" as="sourcePoint" />
            <mxPoint x="1120" y="680" as="targetPoint" />
          </mxGeometry>
        </mxCell>
        <mxCell id="RNrQX4KEW6rcFSMOayev-53" value="" style="endArrow=none;html=1;rounded=0;strokeWidth=5;fontSize=15;" edge="1" parent="1">
          <mxGeometry width="50" height="50" relative="1" as="geometry">
            <mxPoint x="1120" y="680" as="sourcePoint" />
            <mxPoint x="1120" y="10" as="targetPoint" />
          </mxGeometry>
        </mxCell>
        <mxCell id="RNrQX4KEW6rcFSMOayev-54" value="Nhân viên" style="rounded=1;arcSize=10;whiteSpace=wrap;html=1;align=center;fontSize=15;fontStyle=1" vertex="1" parent="1">
          <mxGeometry x="1325" y="140" width="140" height="60" as="geometry" />
        </mxCell>
        <mxCell id="RNrQX4KEW6rcFSMOayev-56" style="rounded=0;orthogonalLoop=1;jettySize=auto;html=1;endArrow=none;endFill=0;fontSize=15;" edge="1" parent="1" source="RNrQX4KEW6rcFSMOayev-55" target="RNrQX4KEW6rcFSMOayev-54">
          <mxGeometry relative="1" as="geometry" />
        </mxCell>
        <mxCell id="RNrQX4KEW6rcFSMOayev-55" value="&lt;u style=&quot;font-size: 15px;&quot;&gt;Mã nhân viên&lt;/u&gt;" style="ellipse;whiteSpace=wrap;html=1;fontSize=15;" vertex="1" parent="1">
          <mxGeometry x="1170" y="130" width="110" height="50" as="geometry" />
        </mxCell>
        <mxCell id="RNrQX4KEW6rcFSMOayev-58" style="rounded=0;orthogonalLoop=1;jettySize=auto;html=1;endArrow=none;endFill=0;exitX=0.5;exitY=1;exitDx=0;exitDy=0;fontSize=15;" edge="1" parent="1" source="RNrQX4KEW6rcFSMOayev-59" target="RNrQX4KEW6rcFSMOayev-54">
          <mxGeometry relative="1" as="geometry">
            <mxPoint x="1285.046755656737" y="73.50346205972426" as="sourcePoint" />
            <mxPoint x="1350" y="69" as="targetPoint" />
          </mxGeometry>
        </mxCell>
        <mxCell id="RNrQX4KEW6rcFSMOayev-59" value="Trình độ học vấn" style="ellipse;whiteSpace=wrap;html=1;fontSize=15;" vertex="1" parent="1">
          <mxGeometry x="1180" y="60" width="110" height="50" as="geometry" />
        </mxCell>
        <mxCell id="RNrQX4KEW6rcFSMOayev-60" value="Ngày sinh" style="ellipse;whiteSpace=wrap;html=1;fontSize=15;" vertex="1" parent="1">
          <mxGeometry x="1250" y="10" width="110" height="50" as="geometry" />
        </mxCell>
        <mxCell id="RNrQX4KEW6rcFSMOayev-61" style="rounded=0;orthogonalLoop=1;jettySize=auto;html=1;endArrow=none;endFill=0;exitX=0.5;exitY=1;exitDx=0;exitDy=0;fontSize=15;" edge="1" parent="1" source="RNrQX4KEW6rcFSMOayev-60" target="RNrQX4KEW6rcFSMOayev-54">
          <mxGeometry relative="1" as="geometry">
            <mxPoint x="1355.046755656737" y="23.503462059724257" as="sourcePoint" />
            <mxPoint x="1402" y="110" as="targetPoint" />
          </mxGeometry>
        </mxCell>
        <mxCell id="RNrQX4KEW6rcFSMOayev-62" value="Giới tính" style="ellipse;whiteSpace=wrap;html=1;fontSize=15;" vertex="1" parent="1">
          <mxGeometry x="1340" y="55" width="110" height="50" as="geometry" />
        </mxCell>
        <mxCell id="RNrQX4KEW6rcFSMOayev-63" style="rounded=0;orthogonalLoop=1;jettySize=auto;html=1;endArrow=none;endFill=0;exitX=0.5;exitY=1;exitDx=0;exitDy=0;fontSize=15;" edge="1" parent="1" source="RNrQX4KEW6rcFSMOayev-62" target="RNrQX4KEW6rcFSMOayev-54">
          <mxGeometry relative="1" as="geometry">
            <mxPoint x="1445.046755656737" y="68.50346205972426" as="sourcePoint" />
            <mxPoint x="1460" y="205" as="targetPoint" />
          </mxGeometry>
        </mxCell>
        <mxCell id="RNrQX4KEW6rcFSMOayev-64" value="Số điện thoại" style="ellipse;whiteSpace=wrap;html=1;fontSize=15;" vertex="1" parent="1">
          <mxGeometry x="1420" y="10" width="110" height="50" as="geometry" />
        </mxCell>
        <mxCell id="RNrQX4KEW6rcFSMOayev-65" style="rounded=0;orthogonalLoop=1;jettySize=auto;html=1;endArrow=none;endFill=0;exitX=0.5;exitY=1;exitDx=0;exitDy=0;fontSize=15;" edge="1" parent="1" source="RNrQX4KEW6rcFSMOayev-64" target="RNrQX4KEW6rcFSMOayev-54">
          <mxGeometry relative="1" as="geometry">
            <mxPoint x="1525.046755656737" y="23.503462059724257" as="sourcePoint" />
            <mxPoint x="1472" y="115" as="targetPoint" />
          </mxGeometry>
        </mxCell>
        <mxCell id="RNrQX4KEW6rcFSMOayev-66" value="Địa chỉ" style="ellipse;whiteSpace=wrap;html=1;fontSize=15;" vertex="1" parent="1">
          <mxGeometry x="1500" y="70" width="110" height="50" as="geometry" />
        </mxCell>
        <mxCell id="RNrQX4KEW6rcFSMOayev-67" style="rounded=0;orthogonalLoop=1;jettySize=auto;html=1;endArrow=none;endFill=0;exitX=0.5;exitY=1;exitDx=0;exitDy=0;fontSize=15;" edge="1" parent="1" source="RNrQX4KEW6rcFSMOayev-66" target="RNrQX4KEW6rcFSMOayev-54">
          <mxGeometry relative="1" as="geometry">
            <mxPoint x="1605.046755656737" y="83.50346205972426" as="sourcePoint" />
            <mxPoint x="1490" y="220" as="targetPoint" />
          </mxGeometry>
        </mxCell>
        <mxCell id="RNrQX4KEW6rcFSMOayev-70" value="Chức vụ" style="ellipse;whiteSpace=wrap;html=1;fontSize=15;" vertex="1" parent="1">
          <mxGeometry x="1500" y="170" width="110" height="50" as="geometry" />
        </mxCell>
        <mxCell id="RNrQX4KEW6rcFSMOayev-71" style="rounded=0;orthogonalLoop=1;jettySize=auto;html=1;endArrow=none;endFill=0;exitX=0;exitY=0.5;exitDx=0;exitDy=0;fontSize=15;" edge="1" parent="1" source="RNrQX4KEW6rcFSMOayev-70" target="RNrQX4KEW6rcFSMOayev-54">
          <mxGeometry relative="1" as="geometry">
            <mxPoint x="1625.046755656737" y="223.50346205972426" as="sourcePoint" />
            <mxPoint x="1450" y="245" as="targetPoint" />
          </mxGeometry>
        </mxCell>
        <mxCell id="RNrQX4KEW6rcFSMOayev-72" value="Họ và tên" style="whiteSpace=wrap;html=1;shape=doubleEllipse;perimeter=ellipsePerimeter;margin=3;fontSize=15;" vertex="1" parent="1">
          <mxGeometry x="1160" y="200" width="110" height="50" as="geometry" />
        </mxCell>
        <mxCell id="RNrQX4KEW6rcFSMOayev-73" style="rounded=0;orthogonalLoop=1;jettySize=auto;html=1;endArrow=none;endFill=0;fontSize=15;" edge="1" parent="1" source="RNrQX4KEW6rcFSMOayev-72" target="RNrQX4KEW6rcFSMOayev-54">
          <mxGeometry relative="1" as="geometry">
            <mxPoint x="1310" y="245" as="targetPoint" />
          </mxGeometry>
        </mxCell>
        <mxCell id="RNrQX4KEW6rcFSMOayev-74" value="Múc lương" style="whiteSpace=wrap;html=1;shape=doubleEllipse;perimeter=ellipsePerimeter;margin=3;fontSize=15;" vertex="1" parent="1">
          <mxGeometry x="1410" y="250" width="110" height="50" as="geometry" />
        </mxCell>
        <mxCell id="RNrQX4KEW6rcFSMOayev-75" style="rounded=0;orthogonalLoop=1;jettySize=auto;html=1;endArrow=none;endFill=0;fontSize=15;" edge="1" parent="1" source="RNrQX4KEW6rcFSMOayev-74" target="RNrQX4KEW6rcFSMOayev-54">
          <mxGeometry relative="1" as="geometry">
            <mxPoint x="1430" y="264" as="targetPoint" />
          </mxGeometry>
        </mxCell>
        <mxCell id="RNrQX4KEW6rcFSMOayev-76" value="Ngày vào làm" style="ellipse;whiteSpace=wrap;html=1;fontSize=15;" vertex="1" parent="1">
          <mxGeometry x="1300" y="230" width="110" height="50" as="geometry" />
        </mxCell>
        <mxCell id="RNrQX4KEW6rcFSMOayev-77" style="rounded=0;orthogonalLoop=1;jettySize=auto;html=1;endArrow=none;endFill=0;fontSize=15;" edge="1" parent="1" source="RNrQX4KEW6rcFSMOayev-76" target="RNrQX4KEW6rcFSMOayev-54">
          <mxGeometry relative="1" as="geometry">
            <mxPoint x="1421.4285714285716" y="210" as="targetPoint" />
          </mxGeometry>
        </mxCell>
        <mxCell id="RNrQX4KEW6rcFSMOayev-78" value="Họ" style="ellipse;whiteSpace=wrap;html=1;fontSize=15;" vertex="1" parent="1">
          <mxGeometry x="1140" y="280" width="60" height="50" as="geometry" />
        </mxCell>
        <mxCell id="RNrQX4KEW6rcFSMOayev-79" style="rounded=0;orthogonalLoop=1;jettySize=auto;html=1;endArrow=none;endFill=0;fontSize=15;" edge="1" parent="1" source="RNrQX4KEW6rcFSMOayev-78" target="RNrQX4KEW6rcFSMOayev-72">
          <mxGeometry relative="1" as="geometry">
            <mxPoint x="1260" y="325" as="targetPoint" />
          </mxGeometry>
        </mxCell>
        <mxCell id="RNrQX4KEW6rcFSMOayev-82" style="rounded=0;orthogonalLoop=1;jettySize=auto;html=1;endArrow=none;endFill=0;fontSize=15;" edge="1" parent="1" source="RNrQX4KEW6rcFSMOayev-83" target="RNrQX4KEW6rcFSMOayev-72">
          <mxGeometry relative="1" as="geometry">
            <mxPoint x="1484" y="340" as="targetPoint" />
          </mxGeometry>
        </mxCell>
        <mxCell id="RNrQX4KEW6rcFSMOayev-83" value="Tên" style="ellipse;whiteSpace=wrap;html=1;fontSize=15;" vertex="1" parent="1">
          <mxGeometry x="1210" y="280" width="60" height="50" as="geometry" />
        </mxCell>
        <mxCell id="RNrQX4KEW6rcFSMOayev-84" style="rounded=0;orthogonalLoop=1;jettySize=auto;html=1;endArrow=none;endFill=0;fontSize=15;" edge="1" parent="1" source="RNrQX4KEW6rcFSMOayev-85" target="RNrQX4KEW6rcFSMOayev-74">
          <mxGeometry relative="1" as="geometry">
            <mxPoint x="1420" y="330" as="targetPoint" />
          </mxGeometry>
        </mxCell>
        <mxCell id="RNrQX4KEW6rcFSMOayev-85" value="Lương cơ bản" style="ellipse;whiteSpace=wrap;html=1;fontSize=15;" vertex="1" parent="1">
          <mxGeometry x="1360" y="300" width="111" height="50" as="geometry" />
        </mxCell>
        <mxCell id="RNrQX4KEW6rcFSMOayev-86" style="rounded=0;orthogonalLoop=1;jettySize=auto;html=1;endArrow=none;endFill=0;fontSize=15;" edge="1" parent="1" source="RNrQX4KEW6rcFSMOayev-87" target="RNrQX4KEW6rcFSMOayev-74">
          <mxGeometry relative="1" as="geometry">
            <mxPoint x="1519.5" y="290" as="targetPoint" />
          </mxGeometry>
        </mxCell>
        <mxCell id="RNrQX4KEW6rcFSMOayev-87" value="Phụ cấp" style="ellipse;whiteSpace=wrap;html=1;fontSize=15;" vertex="1" parent="1">
          <mxGeometry x="1500" y="300" width="99.5" height="50" as="geometry" />
        </mxCell>
        <mxCell id="RNrQX4KEW6rcFSMOayev-88" value="Khách hàng" style="rounded=1;arcSize=10;whiteSpace=wrap;html=1;align=center;fontSize=15;fontStyle=1" vertex="1" parent="1">
          <mxGeometry x="1320" y="440" width="140" height="60" as="geometry" />
        </mxCell>
        <mxCell id="RNrQX4KEW6rcFSMOayev-89" value="" style="endArrow=none;html=1;rounded=0;strokeWidth=5;fontSize=15;" edge="1" parent="1">
          <mxGeometry relative="1" as="geometry">
            <mxPoint x="1120" y="360" as="sourcePoint" />
            <mxPoint x="1650" y="360" as="targetPoint" />
          </mxGeometry>
        </mxCell>
        <mxCell id="RNrQX4KEW6rcFSMOayev-90" value="&lt;u style=&quot;font-size: 15px;&quot;&gt;Mã khách hàng&lt;/u&gt;" style="ellipse;whiteSpace=wrap;html=1;fontSize=15;" vertex="1" parent="1">
          <mxGeometry x="1340" y="370" width="110" height="50" as="geometry" />
        </mxCell>
        <mxCell id="RNrQX4KEW6rcFSMOayev-91" style="rounded=0;orthogonalLoop=1;jettySize=auto;html=1;endArrow=none;endFill=0;fontSize=15;" edge="1" parent="1" source="RNrQX4KEW6rcFSMOayev-90" target="RNrQX4KEW6rcFSMOayev-88">
          <mxGeometry relative="1" as="geometry">
            <mxPoint x="1251" y="400" as="targetPoint" />
          </mxGeometry>
        </mxCell>
        <mxCell id="RNrQX4KEW6rcFSMOayev-92" value="Địa chỉ" style="ellipse;whiteSpace=wrap;html=1;fontSize=15;" vertex="1" parent="1">
          <mxGeometry x="1470" y="380" width="110" height="50" as="geometry" />
        </mxCell>
        <mxCell id="RNrQX4KEW6rcFSMOayev-93" style="rounded=0;orthogonalLoop=1;jettySize=auto;html=1;endArrow=none;endFill=0;fontSize=15;" edge="1" parent="1" source="RNrQX4KEW6rcFSMOayev-92" target="RNrQX4KEW6rcFSMOayev-88">
          <mxGeometry relative="1" as="geometry">
            <mxPoint x="1261" y="410" as="targetPoint" />
          </mxGeometry>
        </mxCell>
        <mxCell id="RNrQX4KEW6rcFSMOayev-94" value="Giới tính" style="ellipse;whiteSpace=wrap;html=1;fontSize=15;" vertex="1" parent="1">
          <mxGeometry x="1512" y="460" width="110" height="50" as="geometry" />
        </mxCell>
        <mxCell id="RNrQX4KEW6rcFSMOayev-95" style="rounded=0;orthogonalLoop=1;jettySize=auto;html=1;endArrow=none;endFill=0;fontSize=15;" edge="1" parent="1" source="RNrQX4KEW6rcFSMOayev-94" target="RNrQX4KEW6rcFSMOayev-88">
          <mxGeometry relative="1" as="geometry">
            <mxPoint x="1271" y="420" as="targetPoint" />
          </mxGeometry>
        </mxCell>
        <mxCell id="RNrQX4KEW6rcFSMOayev-96" value="SĐT" style="ellipse;whiteSpace=wrap;html=1;fontSize=15;" vertex="1" parent="1">
          <mxGeometry x="1452" y="530" width="110" height="50" as="geometry" />
        </mxCell>
        <mxCell id="RNrQX4KEW6rcFSMOayev-97" style="rounded=0;orthogonalLoop=1;jettySize=auto;html=1;endArrow=none;endFill=0;fontSize=15;" edge="1" parent="1" source="RNrQX4KEW6rcFSMOayev-96" target="RNrQX4KEW6rcFSMOayev-88">
          <mxGeometry relative="1" as="geometry">
            <mxPoint x="1552" y="380" as="targetPoint" />
          </mxGeometry>
        </mxCell>
        <mxCell id="RNrQX4KEW6rcFSMOayev-98" style="rounded=0;orthogonalLoop=1;jettySize=auto;html=1;endArrow=none;endFill=0;fontSize=15;" edge="1" parent="1" source="RNrQX4KEW6rcFSMOayev-99" target="RNrQX4KEW6rcFSMOayev-88">
          <mxGeometry relative="1" as="geometry">
            <mxPoint x="1320" y="529.3939393939393" as="targetPoint" />
          </mxGeometry>
        </mxCell>
        <mxCell id="RNrQX4KEW6rcFSMOayev-99" value="Họ và tên" style="whiteSpace=wrap;html=1;shape=doubleEllipse;perimeter=ellipsePerimeter;margin=3;fontSize=15;" vertex="1" parent="1">
          <mxGeometry x="1170" y="490" width="110" height="50" as="geometry" />
        </mxCell>
        <mxCell id="RNrQX4KEW6rcFSMOayev-100" value="Họ" style="ellipse;whiteSpace=wrap;html=1;fontSize=15;" vertex="1" parent="1">
          <mxGeometry x="1150" y="550" width="60" height="40" as="geometry" />
        </mxCell>
        <mxCell id="RNrQX4KEW6rcFSMOayev-102" value="Tên" style="ellipse;whiteSpace=wrap;html=1;fontSize=15;" vertex="1" parent="1">
          <mxGeometry x="1236" y="550" width="60" height="40" as="geometry" />
        </mxCell>
        <mxCell id="RNrQX4KEW6rcFSMOayev-104" style="rounded=0;orthogonalLoop=1;jettySize=auto;html=1;endArrow=none;endFill=0;fontSize=15;" edge="1" parent="1" source="RNrQX4KEW6rcFSMOayev-100" target="RNrQX4KEW6rcFSMOayev-99">
          <mxGeometry relative="1" as="geometry">
            <mxPoint x="1256.5" y="625" as="targetPoint" />
          </mxGeometry>
        </mxCell>
        <mxCell id="RNrQX4KEW6rcFSMOayev-105" style="rounded=0;orthogonalLoop=1;jettySize=auto;html=1;endArrow=none;endFill=0;fontSize=15;" edge="1" parent="1" source="RNrQX4KEW6rcFSMOayev-102" target="RNrQX4KEW6rcFSMOayev-99">
          <mxGeometry relative="1" as="geometry">
            <mxPoint x="1480.5" y="640" as="targetPoint" />
          </mxGeometry>
        </mxCell>
        <mxCell id="RNrQX4KEW6rcFSMOayev-106" value="Mã thông tin thanh toán" style="ellipse;whiteSpace=wrap;html=1;fontSize=15;" vertex="1" parent="1">
          <mxGeometry x="1320" y="530" width="110" height="50" as="geometry" />
        </mxCell>
        <mxCell id="RNrQX4KEW6rcFSMOayev-107" style="rounded=0;orthogonalLoop=1;jettySize=auto;html=1;endArrow=none;endFill=0;fontSize=15;" edge="1" parent="1" source="RNrQX4KEW6rcFSMOayev-106" target="RNrQX4KEW6rcFSMOayev-88">
          <mxGeometry relative="1" as="geometry">
            <mxPoint x="1325" y="540" as="targetPoint" />
          </mxGeometry>
        </mxCell>
        <mxCell id="RNrQX4KEW6rcFSMOayev-108" value="" style="endArrow=none;html=1;rounded=0;strokeWidth=5;fontSize=15;" edge="1" parent="1">
          <mxGeometry relative="1" as="geometry">
            <mxPoint x="1120" y="600" as="sourcePoint" />
            <mxPoint x="1650" y="600" as="targetPoint" />
          </mxGeometry>
        </mxCell>
        <mxCell id="RNrQX4KEW6rcFSMOayev-112" value="Món ăn" style="rounded=1;arcSize=10;whiteSpace=wrap;html=1;align=center;fontSize=15;fontStyle=1" vertex="1" parent="1">
          <mxGeometry x="1305" y="710" width="140" height="60" as="geometry" />
        </mxCell>
        <mxCell id="RNrQX4KEW6rcFSMOayev-114" value="&lt;u style=&quot;font-size: 15px;&quot;&gt;Mã món ăn&lt;/u&gt;" style="ellipse;whiteSpace=wrap;html=1;fontSize=15;" vertex="1" parent="1">
          <mxGeometry x="1300.5" y="630" width="110" height="50" as="geometry" />
        </mxCell>
        <mxCell id="RNrQX4KEW6rcFSMOayev-115" style="rounded=0;orthogonalLoop=1;jettySize=auto;html=1;endArrow=none;endFill=0;fontSize=15;" edge="1" parent="1" source="RNrQX4KEW6rcFSMOayev-114" target="RNrQX4KEW6rcFSMOayev-112">
          <mxGeometry relative="1" as="geometry">
            <mxPoint x="1394" y="480" as="targetPoint" />
          </mxGeometry>
        </mxCell>
        <mxCell id="RNrQX4KEW6rcFSMOayev-116" value="Ảnh mô tả" style="ellipse;whiteSpace=wrap;html=1;fontSize=15;" vertex="1" parent="1">
          <mxGeometry x="1440" y="630" width="110" height="50" as="geometry" />
        </mxCell>
        <mxCell id="RNrQX4KEW6rcFSMOayev-117" style="rounded=0;orthogonalLoop=1;jettySize=auto;html=1;endArrow=none;endFill=0;fontSize=15;" edge="1" parent="1" source="RNrQX4KEW6rcFSMOayev-116" target="RNrQX4KEW6rcFSMOayev-112">
          <mxGeometry relative="1" as="geometry">
            <mxPoint x="1394" y="730" as="targetPoint" />
          </mxGeometry>
        </mxCell>
        <mxCell id="RNrQX4KEW6rcFSMOayev-120" value="Sô lượng bán" style="ellipse;whiteSpace=wrap;html=1;fontSize=15;" vertex="1" parent="1">
          <mxGeometry x="1520" y="700" width="110" height="50" as="geometry" />
        </mxCell>
        <mxCell id="RNrQX4KEW6rcFSMOayev-121" style="rounded=0;orthogonalLoop=1;jettySize=auto;html=1;endArrow=none;endFill=0;fontSize=15;" edge="1" parent="1" source="RNrQX4KEW6rcFSMOayev-120" target="RNrQX4KEW6rcFSMOayev-112">
          <mxGeometry relative="1" as="geometry">
            <mxPoint x="1414" y="750" as="targetPoint" />
          </mxGeometry>
        </mxCell>
        <mxCell id="RNrQX4KEW6rcFSMOayev-122" value="Nguồn gốc" style="ellipse;whiteSpace=wrap;html=1;fontSize=15;" vertex="1" parent="1">
          <mxGeometry x="1500" y="760" width="110" height="50" as="geometry" />
        </mxCell>
        <mxCell id="RNrQX4KEW6rcFSMOayev-123" style="rounded=0;orthogonalLoop=1;jettySize=auto;html=1;endArrow=none;endFill=0;fontSize=15;" edge="1" parent="1" source="RNrQX4KEW6rcFSMOayev-122" target="RNrQX4KEW6rcFSMOayev-112">
          <mxGeometry relative="1" as="geometry">
            <mxPoint x="1424" y="760" as="targetPoint" />
          </mxGeometry>
        </mxCell>
        <mxCell id="RNrQX4KEW6rcFSMOayev-124" value="Mô tả món ăn" style="ellipse;whiteSpace=wrap;html=1;fontSize=15;" vertex="1" parent="1">
          <mxGeometry x="1390" y="810" width="110" height="50" as="geometry" />
        </mxCell>
        <mxCell id="RNrQX4KEW6rcFSMOayev-125" style="rounded=0;orthogonalLoop=1;jettySize=auto;html=1;endArrow=none;endFill=0;fontSize=15;" edge="1" parent="1" source="RNrQX4KEW6rcFSMOayev-124" target="RNrQX4KEW6rcFSMOayev-112">
          <mxGeometry relative="1" as="geometry">
            <mxPoint x="1434" y="770" as="targetPoint" />
          </mxGeometry>
        </mxCell>
        <mxCell id="RNrQX4KEW6rcFSMOayev-126" value="Nguyên liệu" style="whiteSpace=wrap;html=1;shape=doubleEllipse;perimeter=ellipsePerimeter;margin=3;fontSize=15;" vertex="1" parent="1">
          <mxGeometry x="1270" y="820" width="110" height="50" as="geometry" />
        </mxCell>
        <mxCell id="RNrQX4KEW6rcFSMOayev-127" style="rounded=0;orthogonalLoop=1;jettySize=auto;html=1;endArrow=none;endFill=0;fontSize=15;" edge="1" parent="1" source="RNrQX4KEW6rcFSMOayev-126" target="RNrQX4KEW6rcFSMOayev-112">
          <mxGeometry relative="1" as="geometry">
            <mxPoint x="1444" y="780" as="targetPoint" />
          </mxGeometry>
        </mxCell>
        <mxCell id="RNrQX4KEW6rcFSMOayev-128" value="Loại món" style="ellipse;whiteSpace=wrap;html=1;fontSize=15;" vertex="1" parent="1">
          <mxGeometry x="1160" y="770" width="110" height="50" as="geometry" />
        </mxCell>
        <mxCell id="RNrQX4KEW6rcFSMOayev-129" style="rounded=0;orthogonalLoop=1;jettySize=auto;html=1;endArrow=none;endFill=0;fontSize=15;" edge="1" parent="1" source="RNrQX4KEW6rcFSMOayev-128" target="RNrQX4KEW6rcFSMOayev-112">
          <mxGeometry relative="1" as="geometry">
            <mxPoint x="1454" y="790" as="targetPoint" />
          </mxGeometry>
        </mxCell>
        <mxCell id="RNrQX4KEW6rcFSMOayev-130" value="Giá" style="ellipse;whiteSpace=wrap;html=1;fontSize=15;" vertex="1" parent="1">
          <mxGeometry x="1156.5" y="700" width="110" height="50" as="geometry" />
        </mxCell>
        <mxCell id="RNrQX4KEW6rcFSMOayev-131" style="rounded=0;orthogonalLoop=1;jettySize=auto;html=1;endArrow=none;endFill=0;fontSize=15;" edge="1" parent="1" source="RNrQX4KEW6rcFSMOayev-130" target="RNrQX4KEW6rcFSMOayev-112">
          <mxGeometry relative="1" as="geometry">
            <mxPoint x="1464" y="800" as="targetPoint" />
          </mxGeometry>
        </mxCell>
        <mxCell id="RNrQX4KEW6rcFSMOayev-132" value="Tên món ăn" style="ellipse;whiteSpace=wrap;html=1;fontSize=15;" vertex="1" parent="1">
          <mxGeometry x="1186" y="630" width="110" height="50" as="geometry" />
        </mxCell>
        <mxCell id="RNrQX4KEW6rcFSMOayev-133" style="rounded=0;orthogonalLoop=1;jettySize=auto;html=1;endArrow=none;endFill=0;fontSize=15;" edge="1" parent="1" source="RNrQX4KEW6rcFSMOayev-132" target="RNrQX4KEW6rcFSMOayev-112">
          <mxGeometry relative="1" as="geometry">
            <mxPoint x="1474" y="810" as="targetPoint" />
          </mxGeometry>
        </mxCell>
        <mxCell id="RNrQX4KEW6rcFSMOayev-134" value="" style="endArrow=none;html=1;rounded=0;strokeWidth=5;fontSize=15;" edge="1" parent="1">
          <mxGeometry relative="1" as="geometry">
            <mxPoint x="1120" y="880" as="sourcePoint" />
            <mxPoint x="1650" y="880" as="targetPoint" />
          </mxGeometry>
        </mxCell>
        <mxCell id="RNrQX4KEW6rcFSMOayev-135" value="" style="endArrow=none;html=1;rounded=0;strokeWidth=5;fontSize=15;" edge="1" parent="1">
          <mxGeometry relative="1" as="geometry">
            <mxPoint x="1120" y="990" as="sourcePoint" />
            <mxPoint x="1120" y="680" as="targetPoint" />
          </mxGeometry>
        </mxCell>
        <mxCell id="RNrQX4KEW6rcFSMOayev-137" value="Bàn ăn" style="rounded=1;arcSize=10;whiteSpace=wrap;html=1;align=center;fontSize=15;fontStyle=1" vertex="1" parent="1">
          <mxGeometry x="1310" y="970" width="140" height="60" as="geometry" />
        </mxCell>
        <mxCell id="RNrQX4KEW6rcFSMOayev-140" value="Trạng thái của bàn" style="ellipse;whiteSpace=wrap;html=1;fontSize=15;" vertex="1" parent="1">
          <mxGeometry x="1380" y="900" width="110" height="50" as="geometry" />
        </mxCell>
        <mxCell id="RNrQX4KEW6rcFSMOayev-141" style="rounded=0;orthogonalLoop=1;jettySize=auto;html=1;endArrow=none;endFill=0;fontSize=15;" edge="1" parent="1" source="RNrQX4KEW6rcFSMOayev-140" target="RNrQX4KEW6rcFSMOayev-137">
          <mxGeometry relative="1" as="geometry">
            <mxPoint x="1378" y="1020" as="targetPoint" />
          </mxGeometry>
        </mxCell>
        <mxCell id="RNrQX4KEW6rcFSMOayev-142" value="Loại bàn" style="ellipse;whiteSpace=wrap;html=1;fontSize=15;" vertex="1" parent="1">
          <mxGeometry x="1480" y="1000" width="110" height="50" as="geometry" />
        </mxCell>
        <mxCell id="RNrQX4KEW6rcFSMOayev-143" style="rounded=0;orthogonalLoop=1;jettySize=auto;html=1;endArrow=none;endFill=0;fontSize=15;" edge="1" parent="1" source="RNrQX4KEW6rcFSMOayev-142" target="RNrQX4KEW6rcFSMOayev-137">
          <mxGeometry relative="1" as="geometry">
            <mxPoint x="1388" y="1030" as="targetPoint" />
          </mxGeometry>
        </mxCell>
        <mxCell id="RNrQX4KEW6rcFSMOayev-144" value="Vị trí" style="ellipse;whiteSpace=wrap;html=1;fontSize=15;" vertex="1" parent="1">
          <mxGeometry x="1500" y="930" width="110" height="50" as="geometry" />
        </mxCell>
        <mxCell id="RNrQX4KEW6rcFSMOayev-145" style="rounded=0;orthogonalLoop=1;jettySize=auto;html=1;endArrow=none;endFill=0;fontSize=15;" edge="1" parent="1" source="RNrQX4KEW6rcFSMOayev-144" target="RNrQX4KEW6rcFSMOayev-137">
          <mxGeometry relative="1" as="geometry">
            <mxPoint x="1410" y="1030" as="targetPoint" />
          </mxGeometry>
        </mxCell>
        <mxCell id="RNrQX4KEW6rcFSMOayev-146" value="Khu vực" style="ellipse;whiteSpace=wrap;html=1;fontSize=15;" vertex="1" parent="1">
          <mxGeometry x="1170" y="1000" width="110" height="50" as="geometry" />
        </mxCell>
        <mxCell id="RNrQX4KEW6rcFSMOayev-147" style="rounded=0;orthogonalLoop=1;jettySize=auto;html=1;endArrow=none;endFill=0;fontSize=15;" edge="1" parent="1" source="RNrQX4KEW6rcFSMOayev-146" target="RNrQX4KEW6rcFSMOayev-137">
          <mxGeometry relative="1" as="geometry">
            <mxPoint x="1408" y="1050" as="targetPoint" />
          </mxGeometry>
        </mxCell>
        <mxCell id="RNrQX4KEW6rcFSMOayev-148" value="&lt;u style=&quot;font-size: 15px;&quot;&gt;Mã bàn ăn&lt;/u&gt;" style="ellipse;whiteSpace=wrap;html=1;fontSize=15;" vertex="1" parent="1">
          <mxGeometry x="1245.5" y="900" width="110" height="50" as="geometry" />
        </mxCell>
        <mxCell id="RNrQX4KEW6rcFSMOayev-149" style="rounded=0;orthogonalLoop=1;jettySize=auto;html=1;endArrow=none;endFill=0;fontSize=15;" edge="1" parent="1" source="RNrQX4KEW6rcFSMOayev-148" target="RNrQX4KEW6rcFSMOayev-137">
          <mxGeometry relative="1" as="geometry">
            <mxPoint x="1418" y="1060" as="targetPoint" />
          </mxGeometry>
        </mxCell>
        <mxCell id="RNrQX4KEW6rcFSMOayev-150" value="Số lương ghế" style="ellipse;whiteSpace=wrap;html=1;fontSize=15;" vertex="1" parent="1">
          <mxGeometry x="1130" y="930" width="110" height="50" as="geometry" />
        </mxCell>
        <mxCell id="RNrQX4KEW6rcFSMOayev-151" style="rounded=0;orthogonalLoop=1;jettySize=auto;html=1;endArrow=none;endFill=0;fontSize=15;" edge="1" parent="1" source="RNrQX4KEW6rcFSMOayev-150" target="RNrQX4KEW6rcFSMOayev-137">
          <mxGeometry relative="1" as="geometry">
            <mxPoint x="1258" y="1100" as="targetPoint" />
          </mxGeometry>
        </mxCell>
        <mxCell id="RNrQX4KEW6rcFSMOayev-152" value="" style="endArrow=none;html=1;rounded=0;strokeWidth=5;fontSize=15;" edge="1" parent="1">
          <mxGeometry relative="1" as="geometry">
            <mxPoint x="1120" y="1060" as="sourcePoint" />
            <mxPoint x="1650" y="1060" as="targetPoint" />
          </mxGeometry>
        </mxCell>
        <mxCell id="RNrQX4KEW6rcFSMOayev-153" value="" style="endArrow=none;html=1;rounded=0;strokeWidth=5;fontSize=15;" edge="1" parent="1">
          <mxGeometry relative="1" as="geometry">
            <mxPoint x="1120" y="1240" as="sourcePoint" />
            <mxPoint x="1120" y="990" as="targetPoint" />
          </mxGeometry>
        </mxCell>
        <mxCell id="RNrQX4KEW6rcFSMOayev-154" value="Hóa đơn" style="rounded=1;arcSize=10;whiteSpace=wrap;html=1;align=center;fontSize=15;fontStyle=1" vertex="1" parent="1">
          <mxGeometry x="1300" y="1160" width="140" height="60" as="geometry" />
        </mxCell>
        <mxCell id="RNrQX4KEW6rcFSMOayev-155" value="Vị trí bàn" style="ellipse;whiteSpace=wrap;html=1;fontSize=15;" vertex="1" parent="1">
          <mxGeometry x="1380" y="1080" width="110" height="50" as="geometry" />
        </mxCell>
        <mxCell id="RNrQX4KEW6rcFSMOayev-156" style="rounded=0;orthogonalLoop=1;jettySize=auto;html=1;endArrow=none;endFill=0;fontSize=15;" edge="1" parent="1" source="RNrQX4KEW6rcFSMOayev-155" target="RNrQX4KEW6rcFSMOayev-154">
          <mxGeometry relative="1" as="geometry">
            <mxPoint x="1340" y="1101" as="targetPoint" />
          </mxGeometry>
        </mxCell>
        <mxCell id="RNrQX4KEW6rcFSMOayev-157" value="Tổng thanh toán" style="ellipse;whiteSpace=wrap;html=1;fontSize=15;" vertex="1" parent="1">
          <mxGeometry x="1256" y="1080" width="110" height="50" as="geometry" />
        </mxCell>
        <mxCell id="RNrQX4KEW6rcFSMOayev-158" style="rounded=0;orthogonalLoop=1;jettySize=auto;html=1;endArrow=none;endFill=0;fontSize=15;" edge="1" parent="1" source="RNrQX4KEW6rcFSMOayev-157" target="RNrQX4KEW6rcFSMOayev-154">
          <mxGeometry relative="1" as="geometry">
            <mxPoint x="1350" y="1111" as="targetPoint" />
          </mxGeometry>
        </mxCell>
        <mxCell id="RNrQX4KEW6rcFSMOayev-159" value="Mã khách hàng" style="ellipse;whiteSpace=wrap;html=1;fontSize=15;fontStyle=4" vertex="1" parent="1">
          <mxGeometry x="1480" y="1110" width="110" height="50" as="geometry" />
        </mxCell>
        <mxCell id="RNrQX4KEW6rcFSMOayev-160" style="rounded=0;orthogonalLoop=1;jettySize=auto;html=1;endArrow=none;endFill=0;fontSize=15;" edge="1" parent="1" source="RNrQX4KEW6rcFSMOayev-159" target="RNrQX4KEW6rcFSMOayev-154">
          <mxGeometry relative="1" as="geometry">
            <mxPoint x="1360" y="1121" as="targetPoint" />
          </mxGeometry>
        </mxCell>
        <mxCell id="RNrQX4KEW6rcFSMOayev-161" value="Ngày xuất hóa đơn" style="ellipse;whiteSpace=wrap;html=1;fontSize=15;" vertex="1" parent="1">
          <mxGeometry x="1170" y="1180" width="110" height="50" as="geometry" />
        </mxCell>
        <mxCell id="RNrQX4KEW6rcFSMOayev-162" style="rounded=0;orthogonalLoop=1;jettySize=auto;html=1;endArrow=none;endFill=0;fontSize=15;" edge="1" parent="1" source="RNrQX4KEW6rcFSMOayev-161" target="RNrQX4KEW6rcFSMOayev-154">
          <mxGeometry relative="1" as="geometry">
            <mxPoint x="1370" y="1131" as="targetPoint" />
          </mxGeometry>
        </mxCell>
        <mxCell id="RNrQX4KEW6rcFSMOayev-163" value="&lt;u style=&quot;font-size: 15px;&quot;&gt;Mã hóa đơn&lt;/u&gt;" style="ellipse;whiteSpace=wrap;html=1;fontSize=15;" vertex="1" parent="1">
          <mxGeometry x="1155" y="1110" width="110" height="50" as="geometry" />
        </mxCell>
        <mxCell id="RNrQX4KEW6rcFSMOayev-164" style="rounded=0;orthogonalLoop=1;jettySize=auto;html=1;endArrow=none;endFill=0;fontSize=15;" edge="1" parent="1" source="RNrQX4KEW6rcFSMOayev-163" target="RNrQX4KEW6rcFSMOayev-154">
          <mxGeometry relative="1" as="geometry">
            <mxPoint x="1380" y="1141" as="targetPoint" />
          </mxGeometry>
        </mxCell>
        <mxCell id="RNrQX4KEW6rcFSMOayev-167" value="Danh sác món ăn" style="whiteSpace=wrap;html=1;shape=doubleEllipse;perimeter=ellipsePerimeter;margin=3;fontSize=15;" vertex="1" parent="1">
          <mxGeometry x="1472" y="1180" width="110" height="50" as="geometry" />
        </mxCell>
        <mxCell id="RNrQX4KEW6rcFSMOayev-168" style="rounded=0;orthogonalLoop=1;jettySize=auto;html=1;endArrow=none;endFill=0;fontSize=15;" edge="1" parent="1" source="RNrQX4KEW6rcFSMOayev-167" target="RNrQX4KEW6rcFSMOayev-154">
          <mxGeometry relative="1" as="geometry">
            <mxPoint x="1436" y="1320" as="targetPoint" />
          </mxGeometry>
        </mxCell>
        <mxCell id="RNrQX4KEW6rcFSMOayev-169" value="" style="endArrow=none;html=1;rounded=0;strokeWidth=5;fontSize=15;" edge="1" parent="1">
          <mxGeometry relative="1" as="geometry">
            <mxPoint x="1118" y="1240" as="sourcePoint" />
            <mxPoint x="1650" y="1240" as="targetPoint" />
          </mxGeometry>
        </mxCell>
        <mxCell id="RNrQX4KEW6rcFSMOayev-170" value="Nguyên liệu" style="rounded=1;arcSize=10;whiteSpace=wrap;html=1;align=center;fontSize=15;fontStyle=1" vertex="1" parent="1">
          <mxGeometry x="840" y="780" width="140" height="60" as="geometry" />
        </mxCell>
        <mxCell id="RNrQX4KEW6rcFSMOayev-171" value="&lt;u style=&quot;font-size: 15px;&quot;&gt;Mã nguyên liệu&lt;/u&gt;" style="ellipse;whiteSpace=wrap;html=1;fontSize=15;" vertex="1" parent="1">
          <mxGeometry x="980" y="700" width="110" height="50" as="geometry" />
        </mxCell>
        <mxCell id="RNrQX4KEW6rcFSMOayev-172" style="rounded=0;orthogonalLoop=1;jettySize=auto;html=1;endArrow=none;endFill=0;fontSize=15;" edge="1" parent="1" source="RNrQX4KEW6rcFSMOayev-171" target="RNrQX4KEW6rcFSMOayev-170">
          <mxGeometry relative="1" as="geometry">
            <mxPoint x="1315" y="774" as="targetPoint" />
          </mxGeometry>
        </mxCell>
        <mxCell id="RNrQX4KEW6rcFSMOayev-173" value="Hạn sử dụng" style="ellipse;whiteSpace=wrap;html=1;fontSize=15;" vertex="1" parent="1">
          <mxGeometry x="880" y="870" width="110" height="50" as="geometry" />
        </mxCell>
        <mxCell id="RNrQX4KEW6rcFSMOayev-174" style="rounded=0;orthogonalLoop=1;jettySize=auto;html=1;endArrow=none;endFill=0;fontSize=15;" edge="1" parent="1" source="RNrQX4KEW6rcFSMOayev-173" target="RNrQX4KEW6rcFSMOayev-170">
          <mxGeometry relative="1" as="geometry">
            <mxPoint x="964" y="790" as="targetPoint" />
          </mxGeometry>
        </mxCell>
        <mxCell id="RNrQX4KEW6rcFSMOayev-175" value="Ngày nhập" style="ellipse;whiteSpace=wrap;html=1;fontSize=15;" vertex="1" parent="1">
          <mxGeometry x="770" y="900" width="110" height="50" as="geometry" />
        </mxCell>
        <mxCell id="RNrQX4KEW6rcFSMOayev-176" style="rounded=0;orthogonalLoop=1;jettySize=auto;html=1;endArrow=none;endFill=0;fontSize=15;" edge="1" parent="1" source="RNrQX4KEW6rcFSMOayev-175" target="RNrQX4KEW6rcFSMOayev-170">
          <mxGeometry relative="1" as="geometry">
            <mxPoint x="974" y="800" as="targetPoint" />
          </mxGeometry>
        </mxCell>
        <mxCell id="RNrQX4KEW6rcFSMOayev-177" value="Số lượng tồn kho" style="ellipse;whiteSpace=wrap;html=1;fontSize=15;" vertex="1" parent="1">
          <mxGeometry x="720" y="840" width="110" height="50" as="geometry" />
        </mxCell>
        <mxCell id="RNrQX4KEW6rcFSMOayev-178" style="rounded=0;orthogonalLoop=1;jettySize=auto;html=1;endArrow=none;endFill=0;fontSize=15;" edge="1" parent="1" source="RNrQX4KEW6rcFSMOayev-177" target="RNrQX4KEW6rcFSMOayev-170">
          <mxGeometry relative="1" as="geometry">
            <mxPoint x="984" y="810" as="targetPoint" />
          </mxGeometry>
        </mxCell>
        <mxCell id="RNrQX4KEW6rcFSMOayev-179" value="Đơn vị đo lường" style="ellipse;whiteSpace=wrap;html=1;fontSize=15;" vertex="1" parent="1">
          <mxGeometry x="713" y="770" width="110" height="50" as="geometry" />
        </mxCell>
        <mxCell id="RNrQX4KEW6rcFSMOayev-180" style="rounded=0;orthogonalLoop=1;jettySize=auto;html=1;endArrow=none;endFill=0;fontSize=15;" edge="1" parent="1" source="RNrQX4KEW6rcFSMOayev-179" target="RNrQX4KEW6rcFSMOayev-170">
          <mxGeometry relative="1" as="geometry">
            <mxPoint x="994" y="820" as="targetPoint" />
          </mxGeometry>
        </mxCell>
        <mxCell id="RNrQX4KEW6rcFSMOayev-181" value="Loại nguyên liệu" style="ellipse;whiteSpace=wrap;html=1;fontSize=15;" vertex="1" parent="1">
          <mxGeometry x="743" y="710" width="110" height="50" as="geometry" />
        </mxCell>
        <mxCell id="RNrQX4KEW6rcFSMOayev-182" style="rounded=0;orthogonalLoop=1;jettySize=auto;html=1;endArrow=none;endFill=0;fontSize=15;" edge="1" parent="1" source="RNrQX4KEW6rcFSMOayev-181" target="RNrQX4KEW6rcFSMOayev-170">
          <mxGeometry relative="1" as="geometry">
            <mxPoint x="1004" y="830" as="targetPoint" />
          </mxGeometry>
        </mxCell>
        <mxCell id="RNrQX4KEW6rcFSMOayev-183" value="Tên nguyên liệu" style="ellipse;whiteSpace=wrap;html=1;fontSize=15;" vertex="1" parent="1">
          <mxGeometry x="860" y="700" width="110" height="50" as="geometry" />
        </mxCell>
        <mxCell id="RNrQX4KEW6rcFSMOayev-184" style="rounded=0;orthogonalLoop=1;jettySize=auto;html=1;endArrow=none;endFill=0;fontSize=15;" edge="1" parent="1" source="RNrQX4KEW6rcFSMOayev-183" target="RNrQX4KEW6rcFSMOayev-170">
          <mxGeometry relative="1" as="geometry">
            <mxPoint x="1014" y="840" as="targetPoint" />
          </mxGeometry>
        </mxCell>
        <mxCell id="RNrQX4KEW6rcFSMOayev-187" value="Món ăn sử dụng" style="whiteSpace=wrap;html=1;shape=doubleEllipse;perimeter=ellipsePerimeter;margin=3;fontSize=15;" vertex="1" parent="1">
          <mxGeometry x="1000" y="770" width="110" height="50" as="geometry" />
        </mxCell>
        <mxCell id="RNrQX4KEW6rcFSMOayev-188" style="rounded=0;orthogonalLoop=1;jettySize=auto;html=1;endArrow=none;endFill=0;fontSize=15;" edge="1" parent="1" source="RNrQX4KEW6rcFSMOayev-187" target="RNrQX4KEW6rcFSMOayev-170">
          <mxGeometry relative="1" as="geometry">
            <mxPoint x="974" y="800" as="targetPoint" />
          </mxGeometry>
        </mxCell>
        <mxCell id="RNrQX4KEW6rcFSMOayev-189" value="Giá mua" style="ellipse;whiteSpace=wrap;html=1;fontSize=15;" vertex="1" parent="1">
          <mxGeometry x="1000" y="840" width="110" height="50" as="geometry" />
        </mxCell>
        <mxCell id="RNrQX4KEW6rcFSMOayev-190" style="rounded=0;orthogonalLoop=1;jettySize=auto;html=1;endArrow=none;endFill=0;fontSize=15;" edge="1" parent="1" source="RNrQX4KEW6rcFSMOayev-189" target="RNrQX4KEW6rcFSMOayev-170">
          <mxGeometry relative="1" as="geometry">
            <mxPoint x="984" y="810" as="targetPoint" />
          </mxGeometry>
        </mxCell>
        <mxCell id="RNrQX4KEW6rcFSMOayev-191" value="Nguồn cung cấp" style="ellipse;whiteSpace=wrap;html=1;fontSize=15;" vertex="1" parent="1">
          <mxGeometry x="1000" y="900" width="110" height="50" as="geometry" />
        </mxCell>
        <mxCell id="RNrQX4KEW6rcFSMOayev-192" style="rounded=0;orthogonalLoop=1;jettySize=auto;html=1;endArrow=none;endFill=0;fontSize=15;" edge="1" parent="1" source="RNrQX4KEW6rcFSMOayev-191" target="RNrQX4KEW6rcFSMOayev-170">
          <mxGeometry relative="1" as="geometry">
            <mxPoint x="994" y="820" as="targetPoint" />
          </mxGeometry>
        </mxCell>
        <mxCell id="RNrQX4KEW6rcFSMOayev-193" value="" style="endArrow=none;html=1;rounded=0;strokeWidth=5;fontSize=15;" edge="1" parent="1">
          <mxGeometry relative="1" as="geometry">
            <mxPoint x="700" y="990" as="sourcePoint" />
            <mxPoint x="700" y="680" as="targetPoint" />
          </mxGeometry>
        </mxCell>
        <mxCell id="RNrQX4KEW6rcFSMOayev-194" value="" style="endArrow=none;html=1;rounded=0;strokeWidth=5;fontSize=15;" edge="1" parent="1">
          <mxGeometry relative="1" as="geometry">
            <mxPoint x="590" y="970" as="sourcePoint" />
            <mxPoint x="1120" y="970" as="targetPoint" />
          </mxGeometry>
        </mxCell>
        <mxCell id="RNrQX4KEW6rcFSMOayev-195" value="Nhà cung cấp" style="rounded=1;arcSize=10;whiteSpace=wrap;html=1;align=center;fontSize=15;fontStyle=1" vertex="1" parent="1">
          <mxGeometry x="25" y="1071" width="140" height="60" as="geometry" />
        </mxCell>
        <mxCell id="RNrQX4KEW6rcFSMOayev-196" value="Thời gian bắt đầu" style="ellipse;whiteSpace=wrap;html=1;fontSize=15;" vertex="1" parent="1">
          <mxGeometry x="583" y="840" width="110" height="50" as="geometry" />
        </mxCell>
        <mxCell id="RNrQX4KEW6rcFSMOayev-197" style="rounded=0;orthogonalLoop=1;jettySize=auto;html=1;endArrow=none;endFill=0;fontSize=15;" edge="1" parent="1" source="RNrQX4KEW6rcFSMOayev-196" target="RNrQX4KEW6rcFSMOayev-220">
          <mxGeometry relative="1" as="geometry">
            <mxPoint x="453" y="1050" as="targetPoint" />
          </mxGeometry>
        </mxCell>
        <mxCell id="RNrQX4KEW6rcFSMOayev-198" value="Tên chương trình" style="ellipse;whiteSpace=wrap;html=1;fontSize=15;" vertex="1" parent="1">
          <mxGeometry x="583" y="760" width="110" height="50" as="geometry" />
        </mxCell>
        <mxCell id="RNrQX4KEW6rcFSMOayev-199" style="rounded=0;orthogonalLoop=1;jettySize=auto;html=1;endArrow=none;endFill=0;fontSize=15;" edge="1" parent="1" source="RNrQX4KEW6rcFSMOayev-198" target="RNrQX4KEW6rcFSMOayev-220">
          <mxGeometry relative="1" as="geometry">
            <mxPoint x="463" y="1060" as="targetPoint" />
          </mxGeometry>
        </mxCell>
        <mxCell id="RNrQX4KEW6rcFSMOayev-200" value="&lt;u style=&quot;font-size: 15px;&quot;&gt;Mã chương trình&lt;/u&gt;" style="ellipse;whiteSpace=wrap;html=1;fontSize=15;" vertex="1" parent="1">
          <mxGeometry x="540" y="700" width="110" height="50" as="geometry" />
        </mxCell>
        <mxCell id="RNrQX4KEW6rcFSMOayev-201" style="rounded=0;orthogonalLoop=1;jettySize=auto;html=1;endArrow=none;endFill=0;fontSize=15;" edge="1" parent="1" source="RNrQX4KEW6rcFSMOayev-200" target="RNrQX4KEW6rcFSMOayev-220">
          <mxGeometry relative="1" as="geometry">
            <mxPoint x="690" y="640" as="targetPoint" />
          </mxGeometry>
        </mxCell>
        <mxCell id="RNrQX4KEW6rcFSMOayev-202" value="Nguyên liệu cung cấp" style="whiteSpace=wrap;html=1;shape=doubleEllipse;perimeter=ellipsePerimeter;margin=3;fontSize=15;" vertex="1" parent="1">
          <mxGeometry x="10" y="1150" width="110" height="50" as="geometry" />
        </mxCell>
        <mxCell id="RNrQX4KEW6rcFSMOayev-203" style="rounded=0;orthogonalLoop=1;jettySize=auto;html=1;endArrow=none;endFill=0;fontSize=15;" edge="1" parent="1" source="RNrQX4KEW6rcFSMOayev-202" target="RNrQX4KEW6rcFSMOayev-195">
          <mxGeometry relative="1" as="geometry">
            <mxPoint x="-170" y="912" as="targetPoint" />
          </mxGeometry>
        </mxCell>
        <mxCell id="RNrQX4KEW6rcFSMOayev-204" value="Ngày hợp tác" style="ellipse;whiteSpace=wrap;html=1;fontSize=15;" vertex="1" parent="1">
          <mxGeometry x="110" y="1181" width="110" height="50" as="geometry" />
        </mxCell>
        <mxCell id="RNrQX4KEW6rcFSMOayev-205" style="rounded=0;orthogonalLoop=1;jettySize=auto;html=1;endArrow=none;endFill=0;fontSize=15;" edge="1" parent="1" source="RNrQX4KEW6rcFSMOayev-204" target="RNrQX4KEW6rcFSMOayev-195">
          <mxGeometry relative="1" as="geometry">
            <mxPoint x="-160" y="922" as="targetPoint" />
          </mxGeometry>
        </mxCell>
        <mxCell id="RNrQX4KEW6rcFSMOayev-206" value="Email" style="ellipse;whiteSpace=wrap;html=1;fontSize=15;" vertex="1" parent="1">
          <mxGeometry x="180" y="1140" width="110" height="50" as="geometry" />
        </mxCell>
        <mxCell id="RNrQX4KEW6rcFSMOayev-207" style="rounded=0;orthogonalLoop=1;jettySize=auto;html=1;endArrow=none;endFill=0;fontSize=15;" edge="1" parent="1" source="RNrQX4KEW6rcFSMOayev-206" target="RNrQX4KEW6rcFSMOayev-195">
          <mxGeometry relative="1" as="geometry">
            <mxPoint x="-150" y="932" as="targetPoint" />
          </mxGeometry>
        </mxCell>
        <mxCell id="RNrQX4KEW6rcFSMOayev-208" value="Số điện thoại" style="ellipse;whiteSpace=wrap;html=1;fontSize=15;" vertex="1" parent="1">
          <mxGeometry x="180" y="1081" width="110" height="50" as="geometry" />
        </mxCell>
        <mxCell id="RNrQX4KEW6rcFSMOayev-209" style="rounded=0;orthogonalLoop=1;jettySize=auto;html=1;endArrow=none;endFill=0;fontSize=15;" edge="1" parent="1" source="RNrQX4KEW6rcFSMOayev-208" target="RNrQX4KEW6rcFSMOayev-195">
          <mxGeometry relative="1" as="geometry">
            <mxPoint x="-140" y="942" as="targetPoint" />
          </mxGeometry>
        </mxCell>
        <mxCell id="RNrQX4KEW6rcFSMOayev-210" value="Địa chỉ" style="ellipse;whiteSpace=wrap;html=1;fontSize=15;" vertex="1" parent="1">
          <mxGeometry x="10" y="1000" width="110" height="50" as="geometry" />
        </mxCell>
        <mxCell id="RNrQX4KEW6rcFSMOayev-211" style="rounded=0;orthogonalLoop=1;jettySize=auto;html=1;endArrow=none;endFill=0;fontSize=15;" edge="1" parent="1" source="RNrQX4KEW6rcFSMOayev-210" target="RNrQX4KEW6rcFSMOayev-195">
          <mxGeometry relative="1" as="geometry">
            <mxPoint x="-130" y="952" as="targetPoint" />
          </mxGeometry>
        </mxCell>
        <mxCell id="RNrQX4KEW6rcFSMOayev-212" value="Tên nhà cung cấp" style="ellipse;whiteSpace=wrap;html=1;fontSize=15;" vertex="1" parent="1">
          <mxGeometry x="130" y="975" width="110" height="50" as="geometry" />
        </mxCell>
        <mxCell id="RNrQX4KEW6rcFSMOayev-213" style="rounded=0;orthogonalLoop=1;jettySize=auto;html=1;endArrow=none;endFill=0;fontSize=15;" edge="1" parent="1" source="RNrQX4KEW6rcFSMOayev-212" target="RNrQX4KEW6rcFSMOayev-195">
          <mxGeometry relative="1" as="geometry">
            <mxPoint x="-120" y="962" as="targetPoint" />
          </mxGeometry>
        </mxCell>
        <mxCell id="RNrQX4KEW6rcFSMOayev-214" value="&lt;u style=&quot;font-size: 15px;&quot;&gt;Mã nhà cung cấp&lt;/u&gt;" style="ellipse;whiteSpace=wrap;html=1;fontSize=15;" vertex="1" parent="1">
          <mxGeometry x="180" y="1030" width="110" height="50" as="geometry" />
        </mxCell>
        <mxCell id="RNrQX4KEW6rcFSMOayev-215" style="rounded=0;orthogonalLoop=1;jettySize=auto;html=1;endArrow=none;endFill=0;fontSize=15;" edge="1" parent="1" source="RNrQX4KEW6rcFSMOayev-214" target="RNrQX4KEW6rcFSMOayev-195">
          <mxGeometry relative="1" as="geometry">
            <mxPoint x="-110" y="982" as="targetPoint" />
          </mxGeometry>
        </mxCell>
        <mxCell id="RNrQX4KEW6rcFSMOayev-217" value="" style="endArrow=none;html=1;rounded=0;strokeWidth=5;fontSize=15;" edge="1" parent="1">
          <mxGeometry relative="1" as="geometry">
            <mxPoint x="700" y="1241" as="sourcePoint" />
            <mxPoint x="700" y="980" as="targetPoint" />
          </mxGeometry>
        </mxCell>
        <mxCell id="RNrQX4KEW6rcFSMOayev-219" value="" style="endArrow=none;html=1;rounded=0;strokeWidth=5;fontSize=15;" edge="1" parent="1">
          <mxGeometry relative="1" as="geometry">
            <mxPoint x="686.5" y="1240" as="sourcePoint" />
            <mxPoint x="1126.5" y="1240" as="targetPoint" />
          </mxGeometry>
        </mxCell>
        <mxCell id="RNrQX4KEW6rcFSMOayev-220" value="Chương trình khuyến mãi" style="rounded=1;arcSize=10;whiteSpace=wrap;html=1;align=center;fontSize=15;fontStyle=1;shape=ext;margin=3;double=1;" vertex="1" parent="1">
          <mxGeometry x="430" y="790" width="140" height="60" as="geometry" />
        </mxCell>
        <mxCell id="RNrQX4KEW6rcFSMOayev-223" style="rounded=0;orthogonalLoop=1;jettySize=auto;html=1;endArrow=none;endFill=0;fontSize=15;" edge="1" parent="1" source="RNrQX4KEW6rcFSMOayev-224" target="RNrQX4KEW6rcFSMOayev-220">
          <mxGeometry relative="1" as="geometry">
            <mxPoint x="520" y="863" as="targetPoint" />
          </mxGeometry>
        </mxCell>
        <mxCell id="RNrQX4KEW6rcFSMOayev-224" value="Điều kiện áp dụng" style="ellipse;whiteSpace=wrap;html=1;fontSize=15;" vertex="1" parent="1">
          <mxGeometry x="414" y="690" width="110" height="50" as="geometry" />
        </mxCell>
        <mxCell id="RNrQX4KEW6rcFSMOayev-225" style="rounded=0;orthogonalLoop=1;jettySize=auto;html=1;endArrow=none;endFill=0;fontSize=15;" edge="1" parent="1" source="RNrQX4KEW6rcFSMOayev-226" target="RNrQX4KEW6rcFSMOayev-220">
          <mxGeometry relative="1" as="geometry">
            <mxPoint x="530" y="873" as="targetPoint" />
          </mxGeometry>
        </mxCell>
        <mxCell id="RNrQX4KEW6rcFSMOayev-226" value="Đối tương áp dụng" style="ellipse;whiteSpace=wrap;html=1;fontSize=15;" vertex="1" parent="1">
          <mxGeometry x="390" y="900" width="110" height="50" as="geometry" />
        </mxCell>
        <mxCell id="RNrQX4KEW6rcFSMOayev-227" style="rounded=0;orthogonalLoop=1;jettySize=auto;html=1;endArrow=none;endFill=0;fontSize=15;" edge="1" parent="1" source="RNrQX4KEW6rcFSMOayev-228" target="RNrQX4KEW6rcFSMOayev-220">
          <mxGeometry relative="1" as="geometry">
            <mxPoint x="540" y="883" as="targetPoint" />
          </mxGeometry>
        </mxCell>
        <mxCell id="RNrQX4KEW6rcFSMOayev-228" value="Loại chương trình" style="ellipse;whiteSpace=wrap;html=1;fontSize=15;" vertex="1" parent="1">
          <mxGeometry x="320" y="750" width="110" height="50" as="geometry" />
        </mxCell>
        <mxCell id="RNrQX4KEW6rcFSMOayev-229" style="rounded=0;orthogonalLoop=1;jettySize=auto;html=1;endArrow=none;endFill=0;fontSize=15;" edge="1" parent="1" source="RNrQX4KEW6rcFSMOayev-230" target="RNrQX4KEW6rcFSMOayev-220">
          <mxGeometry relative="1" as="geometry">
            <mxPoint x="550" y="893" as="targetPoint" />
          </mxGeometry>
        </mxCell>
        <mxCell id="RNrQX4KEW6rcFSMOayev-230" value="Mức giảm giá" style="ellipse;whiteSpace=wrap;html=1;fontSize=15;" vertex="1" parent="1">
          <mxGeometry x="320" y="850" width="110" height="50" as="geometry" />
        </mxCell>
        <mxCell id="RNrQX4KEW6rcFSMOayev-231" style="rounded=0;orthogonalLoop=1;jettySize=auto;html=1;endArrow=none;endFill=0;fontSize=15;" edge="1" parent="1" source="RNrQX4KEW6rcFSMOayev-232" target="RNrQX4KEW6rcFSMOayev-220">
          <mxGeometry relative="1" as="geometry">
            <mxPoint x="560" y="903" as="targetPoint" />
          </mxGeometry>
        </mxCell>
        <mxCell id="RNrQX4KEW6rcFSMOayev-232" value="Thời gian kết thúc" style="ellipse;whiteSpace=wrap;html=1;fontSize=15;" vertex="1" parent="1">
          <mxGeometry x="524" y="900" width="110" height="50" as="geometry" />
        </mxCell>
        <mxCell id="RNrQX4KEW6rcFSMOayev-233" value="" style="endArrow=none;html=1;rounded=0;strokeWidth=5;fontSize=15;" edge="1" parent="1">
          <mxGeometry relative="1" as="geometry">
            <mxPoint x="10" y="970" as="sourcePoint" />
            <mxPoint x="590" y="970" as="targetPoint" />
          </mxGeometry>
        </mxCell>
        <mxCell id="RNrQX4KEW6rcFSMOayev-234" value="" style="endArrow=none;html=1;rounded=0;strokeWidth=5;fontSize=15;" edge="1" parent="1">
          <mxGeometry relative="1" as="geometry">
            <mxPoint x="300" y="990" as="sourcePoint" />
            <mxPoint x="300" y="680" as="targetPoint" />
          </mxGeometry>
        </mxCell>
        <mxCell id="RNrQX4KEW6rcFSMOayev-250" value="" style="endArrow=none;html=1;rounded=0;strokeWidth=5;fontSize=15;" edge="1" parent="1">
          <mxGeometry relative="1" as="geometry">
            <mxPoint x="10" y="1240" as="sourcePoint" />
            <mxPoint x="695" y="1240" as="targetPoint" />
          </mxGeometry>
        </mxCell>
        <mxCell id="RNrQX4KEW6rcFSMOayev-251" value="Kho" style="rounded=1;arcSize=10;whiteSpace=wrap;html=1;align=center;fontSize=15;fontStyle=1" vertex="1" parent="1">
          <mxGeometry x="845" y="1061" width="140" height="60" as="geometry" />
        </mxCell>
        <mxCell id="RNrQX4KEW6rcFSMOayev-253" value="Loại kho" style="ellipse;whiteSpace=wrap;html=1;fontSize=15;" vertex="1" parent="1">
          <mxGeometry x="910" y="1170" width="110" height="50" as="geometry" />
        </mxCell>
        <mxCell id="RNrQX4KEW6rcFSMOayev-254" style="rounded=0;orthogonalLoop=1;jettySize=auto;html=1;endArrow=none;endFill=0;fontSize=15;" edge="1" parent="1" source="RNrQX4KEW6rcFSMOayev-253" target="RNrQX4KEW6rcFSMOayev-251">
          <mxGeometry relative="1" as="geometry">
            <mxPoint x="507" y="1140" as="targetPoint" />
          </mxGeometry>
        </mxCell>
        <mxCell id="RNrQX4KEW6rcFSMOayev-255" value="Địa chỉ kho" style="ellipse;whiteSpace=wrap;html=1;fontSize=15;" vertex="1" parent="1">
          <mxGeometry x="1000" y="1100" width="110" height="50" as="geometry" />
        </mxCell>
        <mxCell id="RNrQX4KEW6rcFSMOayev-256" style="rounded=0;orthogonalLoop=1;jettySize=auto;html=1;endArrow=none;endFill=0;fontSize=15;" edge="1" parent="1" source="RNrQX4KEW6rcFSMOayev-255" target="RNrQX4KEW6rcFSMOayev-251">
          <mxGeometry relative="1" as="geometry">
            <mxPoint x="517" y="1150" as="targetPoint" />
          </mxGeometry>
        </mxCell>
        <mxCell id="RNrQX4KEW6rcFSMOayev-257" value="Tên kho" style="ellipse;whiteSpace=wrap;html=1;fontSize=15;" vertex="1" parent="1">
          <mxGeometry x="985" y="1010" width="110" height="50" as="geometry" />
        </mxCell>
        <mxCell id="RNrQX4KEW6rcFSMOayev-258" style="rounded=0;orthogonalLoop=1;jettySize=auto;html=1;endArrow=none;endFill=0;fontSize=15;" edge="1" parent="1" source="RNrQX4KEW6rcFSMOayev-257" target="RNrQX4KEW6rcFSMOayev-251">
          <mxGeometry relative="1" as="geometry">
            <mxPoint x="940" y="1100" as="targetPoint" />
          </mxGeometry>
        </mxCell>
        <mxCell id="RNrQX4KEW6rcFSMOayev-259" value="&lt;u style=&quot;font-size: 15px;&quot;&gt;Mã kho&lt;/u&gt;" style="ellipse;whiteSpace=wrap;html=1;fontSize=15;" vertex="1" parent="1">
          <mxGeometry x="860" y="990" width="110" height="50" as="geometry" />
        </mxCell>
        <mxCell id="RNrQX4KEW6rcFSMOayev-260" style="rounded=0;orthogonalLoop=1;jettySize=auto;html=1;endArrow=none;endFill=0;fontSize=15;" edge="1" parent="1" source="RNrQX4KEW6rcFSMOayev-259" target="RNrQX4KEW6rcFSMOayev-251">
          <mxGeometry relative="1" as="geometry">
            <mxPoint x="537" y="1170" as="targetPoint" />
          </mxGeometry>
        </mxCell>
        <mxCell id="RNrQX4KEW6rcFSMOayev-265" value="Trạng thái tồn kho" style="ellipse;whiteSpace=wrap;html=1;fontSize=15;" vertex="1" parent="1">
          <mxGeometry x="720" y="1080" width="110" height="50" as="geometry" />
        </mxCell>
        <mxCell id="RNrQX4KEW6rcFSMOayev-266" style="rounded=0;orthogonalLoop=1;jettySize=auto;html=1;endArrow=none;endFill=0;fontSize=15;" edge="1" parent="1" source="RNrQX4KEW6rcFSMOayev-265" target="RNrQX4KEW6rcFSMOayev-251">
          <mxGeometry relative="1" as="geometry">
            <mxPoint x="527" y="1160" as="targetPoint" />
          </mxGeometry>
        </mxCell>
        <mxCell id="RNrQX4KEW6rcFSMOayev-267" value="Sức chứa kho" style="ellipse;whiteSpace=wrap;html=1;fontSize=15;" vertex="1" parent="1">
          <mxGeometry x="780" y="1170" width="110" height="50" as="geometry" />
        </mxCell>
        <mxCell id="RNrQX4KEW6rcFSMOayev-268" style="rounded=0;orthogonalLoop=1;jettySize=auto;html=1;endArrow=none;endFill=0;fontSize=15;" edge="1" parent="1" source="RNrQX4KEW6rcFSMOayev-267" target="RNrQX4KEW6rcFSMOayev-251">
          <mxGeometry relative="1" as="geometry">
            <mxPoint x="537" y="1170" as="targetPoint" />
          </mxGeometry>
        </mxCell>
        <mxCell id="RNrQX4KEW6rcFSMOayev-269" value="Danh sách nguyên liệu" style="whiteSpace=wrap;html=1;shape=doubleEllipse;perimeter=ellipsePerimeter;margin=3;fontSize=15;" vertex="1" parent="1">
          <mxGeometry x="720" y="990" width="110" height="50" as="geometry" />
        </mxCell>
        <mxCell id="RNrQX4KEW6rcFSMOayev-270" style="rounded=0;orthogonalLoop=1;jettySize=auto;html=1;endArrow=none;endFill=0;fontSize=15;" edge="1" parent="1" source="RNrQX4KEW6rcFSMOayev-269" target="RNrQX4KEW6rcFSMOayev-251">
          <mxGeometry relative="1" as="geometry">
            <mxPoint x="650" y="1270" as="targetPoint" />
          </mxGeometry>
        </mxCell>
        <mxCell id="RNrQX4KEW6rcFSMOayev-271" value="Đánh giá" style="rounded=1;arcSize=10;whiteSpace=wrap;html=1;align=center;fontSize=15;fontStyle=1" vertex="1" parent="1">
          <mxGeometry x="10" y="790" width="140" height="60" as="geometry" />
        </mxCell>
        <mxCell id="RNrQX4KEW6rcFSMOayev-272" value="Mức độ hài lòng" style="ellipse;whiteSpace=wrap;html=1;fontSize=15;" vertex="1" parent="1">
          <mxGeometry x="180" y="840" width="110" height="50" as="geometry" />
        </mxCell>
        <mxCell id="RNrQX4KEW6rcFSMOayev-273" style="rounded=0;orthogonalLoop=1;jettySize=auto;html=1;endArrow=none;endFill=0;fontSize=15;" edge="1" parent="1" source="RNrQX4KEW6rcFSMOayev-272" target="RNrQX4KEW6rcFSMOayev-271">
          <mxGeometry relative="1" as="geometry">
            <mxPoint x="494" y="860" as="targetPoint" />
          </mxGeometry>
        </mxCell>
        <mxCell id="RNrQX4KEW6rcFSMOayev-274" value="Thời gian đánh giá" style="ellipse;whiteSpace=wrap;html=1;fontSize=15;" vertex="1" parent="1">
          <mxGeometry x="180" y="770" width="110" height="50" as="geometry" />
        </mxCell>
        <mxCell id="RNrQX4KEW6rcFSMOayev-275" style="rounded=0;orthogonalLoop=1;jettySize=auto;html=1;endArrow=none;endFill=0;fontSize=15;" edge="1" parent="1" source="RNrQX4KEW6rcFSMOayev-274" target="RNrQX4KEW6rcFSMOayev-271">
          <mxGeometry relative="1" as="geometry">
            <mxPoint x="504" y="870" as="targetPoint" />
          </mxGeometry>
        </mxCell>
        <mxCell id="RNrQX4KEW6rcFSMOayev-276" value="Người đánh giá" style="ellipse;whiteSpace=wrap;html=1;fontSize=15;" vertex="1" parent="1">
          <mxGeometry x="10" y="700" width="110" height="50" as="geometry" />
        </mxCell>
        <mxCell id="RNrQX4KEW6rcFSMOayev-277" style="rounded=0;orthogonalLoop=1;jettySize=auto;html=1;endArrow=none;endFill=0;fontSize=15;" edge="1" parent="1" source="RNrQX4KEW6rcFSMOayev-276" target="RNrQX4KEW6rcFSMOayev-271">
          <mxGeometry relative="1" as="geometry">
            <mxPoint x="514" y="880" as="targetPoint" />
          </mxGeometry>
        </mxCell>
        <mxCell id="RNrQX4KEW6rcFSMOayev-278" value="&lt;u style=&quot;font-size: 15px;&quot;&gt;Mã đánh giá&lt;/u&gt;" style="ellipse;whiteSpace=wrap;html=1;fontSize=15;" vertex="1" parent="1">
          <mxGeometry x="145" y="710" width="110" height="50" as="geometry" />
        </mxCell>
        <mxCell id="RNrQX4KEW6rcFSMOayev-279" style="rounded=0;orthogonalLoop=1;jettySize=auto;html=1;endArrow=none;endFill=0;fontSize=15;" edge="1" parent="1" source="RNrQX4KEW6rcFSMOayev-278" target="RNrQX4KEW6rcFSMOayev-271">
          <mxGeometry relative="1" as="geometry">
            <mxPoint x="524" y="890" as="targetPoint" />
          </mxGeometry>
        </mxCell>
        <mxCell id="RNrQX4KEW6rcFSMOayev-282" value="Nội dung đánh giá" style="ellipse;whiteSpace=wrap;html=1;fontSize=15;" vertex="1" parent="1">
          <mxGeometry x="150" y="900" width="110" height="50" as="geometry" />
        </mxCell>
        <mxCell id="RNrQX4KEW6rcFSMOayev-283" style="rounded=0;orthogonalLoop=1;jettySize=auto;html=1;endArrow=none;endFill=0;fontSize=15;" edge="1" parent="1" source="RNrQX4KEW6rcFSMOayev-282" target="RNrQX4KEW6rcFSMOayev-271">
          <mxGeometry relative="1" as="geometry">
            <mxPoint x="170" y="840" as="targetPoint" />
          </mxGeometry>
        </mxCell>
        <mxCell id="RNrQX4KEW6rcFSMOayev-284" value="Danh mục đánh giá" style="ellipse;whiteSpace=wrap;html=1;fontSize=15;" vertex="1" parent="1">
          <mxGeometry x="10" y="900" width="110" height="50" as="geometry" />
        </mxCell>
        <mxCell id="RNrQX4KEW6rcFSMOayev-285" style="rounded=0;orthogonalLoop=1;jettySize=auto;html=1;endArrow=none;endFill=0;fontSize=15;" edge="1" parent="1" source="RNrQX4KEW6rcFSMOayev-284" target="RNrQX4KEW6rcFSMOayev-271">
          <mxGeometry relative="1" as="geometry">
            <mxPoint x="180" y="850" as="targetPoint" />
          </mxGeometry>
        </mxCell>
        <mxCell id="RNrQX4KEW6rcFSMOayev-287" value="Thông tin thanh toán" style="rounded=1;arcSize=10;whiteSpace=wrap;html=1;align=center;fontSize=15;fontStyle=1;shape=ext;margin=3;double=1;" vertex="1" parent="1">
          <mxGeometry x="402.5" y="1079" width="140" height="60" as="geometry" />
        </mxCell>
        <mxCell id="RNrQX4KEW6rcFSMOayev-288" value="Tên chủ sở hữu" style="ellipse;whiteSpace=wrap;html=1;fontSize=15;" vertex="1" parent="1">
          <mxGeometry x="577.5" y="1150" width="110" height="50" as="geometry" />
        </mxCell>
        <mxCell id="RNrQX4KEW6rcFSMOayev-289" style="rounded=0;orthogonalLoop=1;jettySize=auto;html=1;endArrow=none;endFill=0;fontSize=15;" edge="1" parent="1" source="RNrQX4KEW6rcFSMOayev-288" target="RNrQX4KEW6rcFSMOayev-287">
          <mxGeometry relative="1" as="geometry">
            <mxPoint x="483.5" y="859" as="targetPoint" />
          </mxGeometry>
        </mxCell>
        <mxCell id="RNrQX4KEW6rcFSMOayev-290" value="Mã chủ sở hữu" style="ellipse;whiteSpace=wrap;html=1;fontSize=15;" vertex="1" parent="1">
          <mxGeometry x="570" y="1060" width="110" height="50" as="geometry" />
        </mxCell>
        <mxCell id="RNrQX4KEW6rcFSMOayev-291" style="rounded=0;orthogonalLoop=1;jettySize=auto;html=1;endArrow=none;endFill=0;fontSize=15;" edge="1" parent="1" source="RNrQX4KEW6rcFSMOayev-290" target="RNrQX4KEW6rcFSMOayev-287">
          <mxGeometry relative="1" as="geometry">
            <mxPoint x="493.5" y="869" as="targetPoint" />
          </mxGeometry>
        </mxCell>
        <mxCell id="RNrQX4KEW6rcFSMOayev-292" value="Hình thức thanh toán" style="ellipse;whiteSpace=wrap;html=1;fontSize=15;" vertex="1" parent="1">
          <mxGeometry x="527.5" y="979" width="110" height="50" as="geometry" />
        </mxCell>
        <mxCell id="RNrQX4KEW6rcFSMOayev-293" style="rounded=0;orthogonalLoop=1;jettySize=auto;html=1;endArrow=none;endFill=0;fontSize=15;" edge="1" parent="1" source="RNrQX4KEW6rcFSMOayev-292" target="RNrQX4KEW6rcFSMOayev-287">
          <mxGeometry relative="1" as="geometry">
            <mxPoint x="503.5" y="879" as="targetPoint" />
          </mxGeometry>
        </mxCell>
        <mxCell id="RNrQX4KEW6rcFSMOayev-294" value="&lt;u style=&quot;font-size: 15px;&quot;&gt;Mã thông tin thanh toán&lt;/u&gt;" style="ellipse;whiteSpace=wrap;html=1;fontSize=15;" vertex="1" parent="1">
          <mxGeometry x="407.5" y="979" width="110" height="50" as="geometry" />
        </mxCell>
        <mxCell id="RNrQX4KEW6rcFSMOayev-295" style="rounded=0;orthogonalLoop=1;jettySize=auto;html=1;endArrow=none;endFill=0;fontSize=15;" edge="1" parent="1" source="RNrQX4KEW6rcFSMOayev-294" target="RNrQX4KEW6rcFSMOayev-287">
          <mxGeometry relative="1" as="geometry">
            <mxPoint x="513.5" y="889" as="targetPoint" />
          </mxGeometry>
        </mxCell>
        <mxCell id="RNrQX4KEW6rcFSMOayev-296" style="rounded=0;orthogonalLoop=1;jettySize=auto;html=1;endArrow=none;endFill=0;fontSize=15;" edge="1" parent="1" source="RNrQX4KEW6rcFSMOayev-297" target="RNrQX4KEW6rcFSMOayev-287">
          <mxGeometry relative="1" as="geometry">
            <mxPoint x="513.5" y="1089" as="targetPoint" />
          </mxGeometry>
        </mxCell>
        <mxCell id="RNrQX4KEW6rcFSMOayev-298" style="rounded=0;orthogonalLoop=1;jettySize=auto;html=1;endArrow=none;endFill=0;fontSize=15;" edge="1" parent="1" source="RNrQX4KEW6rcFSMOayev-299" target="RNrQX4KEW6rcFSMOayev-287">
          <mxGeometry relative="1" as="geometry">
            <mxPoint x="523.5" y="1099" as="targetPoint" />
          </mxGeometry>
        </mxCell>
        <mxCell id="RNrQX4KEW6rcFSMOayev-299" value="Ngân hàng" style="ellipse;whiteSpace=wrap;html=1;fontSize=15;" vertex="1" parent="1">
          <mxGeometry x="320" y="1150" width="110" height="50" as="geometry" />
        </mxCell>
        <mxCell id="RNrQX4KEW6rcFSMOayev-300" style="rounded=0;orthogonalLoop=1;jettySize=auto;html=1;endArrow=none;endFill=0;fontSize=15;" edge="1" parent="1" source="RNrQX4KEW6rcFSMOayev-301" target="RNrQX4KEW6rcFSMOayev-287">
          <mxGeometry relative="1" as="geometry">
            <mxPoint x="533.5" y="1109" as="targetPoint" />
          </mxGeometry>
        </mxCell>
        <mxCell id="RNrQX4KEW6rcFSMOayev-301" value="Số điện thoại" style="ellipse;whiteSpace=wrap;html=1;fontSize=15;" vertex="1" parent="1">
          <mxGeometry x="435" y="1170" width="110" height="50" as="geometry" />
        </mxCell>
        <mxCell id="vwjJfpuQYMlkj4QJHYYm-1" value="" style="endArrow=none;html=1;rounded=0;strokeWidth=5;fontSize=15;" edge="1" parent="1">
          <mxGeometry relative="1" as="geometry">
            <mxPoint x="300" y="1241" as="sourcePoint" />
            <mxPoint x="300" y="940" as="targetPoint" />
          </mxGeometry>
        </mxCell>
        <mxCell id="RNrQX4KEW6rcFSMOayev-297" value="Số tài khoản ngân hàng" style="ellipse;whiteSpace=wrap;html=1;fontSize=15;" vertex="1" parent="1">
          <mxGeometry x="304" y="1021" width="110" height="50" as="geometry" />
        </mxCell>
        <mxCell id="tQty-yD7MHct1ZMePWeT-3" value="Mức độ thân thiết" style="ellipse;whiteSpace=wrap;html=1;fontSize=15;" vertex="1" parent="1">
          <mxGeometry x="1160" y="420" width="110" height="50" as="geometry" />
        </mxCell>
        <mxCell id="tQty-yD7MHct1ZMePWeT-4" style="rounded=0;orthogonalLoop=1;jettySize=auto;html=1;endArrow=none;endFill=0;fontSize=15;" edge="1" parent="1" source="tQty-yD7MHct1ZMePWeT-3" target="RNrQX4KEW6rcFSMOayev-88">
          <mxGeometry relative="1" as="geometry">
            <mxPoint x="1225" y="390" as="targetPoint" />
          </mxGeometry>
        </mxCell>
      </root>
    </mxGraphModel>
  </diagram>
</mxfile>
